{
 "asset" : {
  "generator" : "Generated by PiXYZStudio 2020.1",
  "version" : "2.0"},
 "nodes" : [
  {
   "name" : "5CDBA",
   "matrix" : [
    1,
    0,
    0,
    0,
    0,
    0,
    -1,
    0,
    0,
    1,
    0,
    0,
    0,
    0,
    0,
    1],
   "mesh" : 0},
  {
   "name" : "Root",
   "matrix" : [
    0.001,
    0,
    0,
    0,
    0,
    0.001,
    0,
    0,
    0,
    0,
    0.001,
    0,
    0,
    0,
    0,
    1],
   "children" : [
    0]}],
 "scenes" : [
  {
   "name" : "Root",
   "nodes" : [
    1]}],
 "scene" : 0,
 "buffers" : [
  {
   "byteLength" : 8452124,
   "uri" : "Be_Chair.bin"}],
 "bufferViews" : [
  {
   "buffer" : 0,
   "byteOffset" : 0,
   "byteLength" : 963996,
   "target" : 34963},
  {
   "buffer" : 0,
   "byteOffset" : 963996,
   "byteLength" : 5616096,
   "byteStride" : 12,
   "target" : 34962},
  {
   "buffer" : 0,
   "byteOffset" : 6580092,
   "byteLength" : 1872032,
   "byteStride" : 8,
   "target" : 34962}],
 "accessors" : [
  {
   "bufferView" : 0,
   "count" : 118350,
   "componentType" : 5125,
   "type" : "SCALAR",
   "byteOffset" : 0,
   "min" : [
    15470],
   "max" : [
    200439]},
  {
   "bufferView" : 0,
   "count" : 122649,
   "componentType" : 5125,
   "type" : "SCALAR",
   "byteOffset" : 473400,
   "min" : [
    0],
   "max" : [
    234003]},
  {
   "bufferView" : 1,
   "count" : 234004,
   "componentType" : 5126,
   "type" : "VEC3",
   "byteOffset" : 0,
   "min" : [
    -8880.37207,
    -8070.331543,
    -9.354835],
   "max" : [
    8880.37207,
    9185.823242,
    24823.152344]},
  {
   "bufferView" : 1,
   "count" : 234004,
   "componentType" : 5126,
   "type" : "VEC3",
   "byteOffset" : 2808048,
   "min" : [
    -1,
    -1,
    -1],
   "max" : [
    1,
    0.999993,
    1]},
  {
   "bufferView" : 2,
   "count" : 234004,
   "componentType" : 5126,
   "type" : "VEC2",
   "byteOffset" : 0,
   "min" : [
    0,
    -1.653693],
   "max" : [
    2.551819,
    1]}],
 "meshes" : [
  {
   "primitives" : [
    {
     "mode" : 4,
     "material" : 0,
     "indices" : 0,
     "attributes" : {
      "POSITION" : 2,
      "NORMAL" : 3,
      "TEXCOORD_0" : 4}},
    {
     "mode" : 4,
     "material" : 1,
     "indices" : 1,
     "attributes" : {
      "POSITION" : 2,
      "NORMAL" : 3,
      "TEXCOORD_0" : 4}}]}],
 "materials" : [
  {
   "name" : "Color #0000ffff",
   "pbrMetallicRoughness" : {
    "baseColorTexture" : {
     "index" : 0,
     "texCoord" : 0},
    "metallicFactor" : 0,
    "roughnessFactor" : 1},
   "normalTexture" : {
    "index" : 1,
    "texCoord" : 0}},
  {
   "name" : "Color #5b5b5bff",
   "pbrMetallicRoughness" : {
    "baseColorFactor" : [0.000000, 0.000000, 0.000000, 1.000000],
    "metallicFactor" : 0,
    "roughnessFactor" : 0.94}}],
 "samplers" : [
  {
}],
 "textures" : [
  {
   "source" : 0,
   "sampler" : 0},
  {
   "source" : 1,
   "sampler" : 0}],
 "images" : [
  {
   "uri" : "FabricWeaveCouch001_GLOSS_HIRES.png"},
  {
   "uri" : "FabricWeaveCouch001_NRM_HIRES.png"}]}