{
 "asset" : {
  "generator" : "Generated by PiXYZStudio 2020.1",
  "version" : "2.0"},
 "nodes" : [
  {
   "name" : "BeLite Drafting Chair",
   "matrix" : [
    1,
    0,
    0,
    0,
    0,
    0,
    -1,
    0,
    0,
    1,
    0,
    0,
    0,
    0,
    0,
    1],
   "mesh" : 0},
  {
   "name" : "Root",
   "matrix" : [
    0.001,
    0,
    0,
    0,
    0,
    0.001,
    0,
    0,
    0,
    0,
    0.001,
    0,
    0,
    0,
    0,
    1],
   "children" : [
    0]}],
 "scenes" : [
  {
   "name" : "Root",
   "nodes" : [
    1]}],
 "scene" : 0,
 "buffers" : [
  {
   "byteLength" : 4816688,
   "uri" : "BeLite_Drafting_Chair.bin"}],
 "bufferViews" : [
  {
   "buffer" : 0,
   "byteOffset" : 0,
   "byteLength" : 581520,
   "target" : 34963},
  {
   "buffer" : 0,
   "byteOffset" : 581520,
   "byteLength" : 3176376,
   "byteStride" : 12,
   "target" : 34962},
  {
   "buffer" : 0,
   "byteOffset" : 3757896,
   "byteLength" : 1058792,
   "byteStride" : 8,
   "target" : 34962}],
 "accessors" : [
  {
   "bufferView" : 0,
   "count" : 5706,
   "componentType" : 5125,
   "type" : "SCALAR",
   "byteOffset" : 0,
   "min" : [
    108158],
   "max" : [
    111609]},
  {
   "bufferView" : 0,
   "count" : 118278,
   "componentType" : 5125,
   "type" : "SCALAR",
   "byteOffset" : 22824,
   "min" : [
    0],
   "max" : [
    132348]},
  {
   "bufferView" : 0,
   "count" : 13356,
   "componentType" : 5125,
   "type" : "SCALAR",
   "byteOffset" : 495936,
   "min" : [
    18073],
   "max" : [
    41745]},
  {
   "bufferView" : 0,
   "count" : 8040,
   "componentType" : 5125,
   "type" : "SCALAR",
   "byteOffset" : 549360,
   "min" : [
    43743],
   "max" : [
    51612]},
  {
   "bufferView" : 1,
   "count" : 132349,
   "componentType" : 5126,
   "type" : "VEC3",
   "byteOffset" : 0,
   "min" : [
    -339.692841,
    -318.12793,
    0],
   "max" : [
    339.692841,
    345.106201,
    1124.827515]},
  {
   "bufferView" : 1,
   "count" : 132349,
   "componentType" : 5126,
   "type" : "VEC3",
   "byteOffset" : 1588188,
   "min" : [
    -1,
    -1,
    -1],
   "max" : [
    1,
    1,
    1]},
  {
   "bufferView" : 2,
   "count" : 132349,
   "componentType" : 5126,
   "type" : "VEC2",
   "byteOffset" : 0,
   "min" : [
    0,
    0.060529],
   "max" : [
    0.952135,
    1]}],
 "meshes" : [
  {
   "primitives" : [
    {
     "mode" : 4,
     "material" : 0,
     "indices" : 0,
     "attributes" : {
      "POSITION" : 4,
      "NORMAL" : 5,
      "TEXCOORD_0" : 6}},
    {
     "mode" : 4,
     "material" : 1,
     "indices" : 1,
     "attributes" : {
      "POSITION" : 4,
      "NORMAL" : 5,
      "TEXCOORD_0" : 6}},
    {
     "mode" : 4,
     "material" : 2,
     "indices" : 2,
     "attributes" : {
      "POSITION" : 4,
      "NORMAL" : 5,
      "TEXCOORD_0" : 6}},
    {
     "mode" : 4,
     "material" : 3,
     "indices" : 3,
     "attributes" : {
      "POSITION" : 4,
      "NORMAL" : 5,
      "TEXCOORD_0" : 6}}]}],
 "materials" : [
  {
   "name" : "new PBR_4",
   "pbrMetallicRoughness" : {
    "baseColorFactor" : [0.101961, 0.101961, 0.101961, 1.000000],
    "metallicFactor" : 0.76902,
    "roughnessFactor" : 0.92663}},
  {
   "name" : "black  body_2",
   "pbrMetallicRoughness" : {
    "baseColorFactor" : [0.000000, 0.000000, 0.000000, 1.000000],
    "metallicFactor" : 0,
    "roughnessFactor" : 0.96467}},
  {
   "name" : "Purple_2",
   "pbrMetallicRoughness" : {
    "baseColorFactor" : [0.000000, 0.000000, 0.000000, 1.000000],
    "metallicFactor" : 0.52174,
    "roughnessFactor" : 0.93207}},
  {
   "name" : "new PBR_2",
   "pbrMetallicRoughness" : {
    "baseColorTexture" : {
     "index" : 0,
     "texCoord" : 0,
     "extensions" : {
      "KHR_texture_transform" : {
       "offset" : [
        0,
        0],
       "scale" : [
        5,
        5]}}},
    "metallicFactor" : 0,
    "roughnessFactor" : 1},
   "normalTexture" : {
    "index" : 1,
    "texCoord" : 0,
    "extensions" : {
     "KHR_texture_transform" : {
      "offset" : [
       0,
       0],
      "scale" : [
       5,
       5]}}}}],
 "samplers" : [
  {
}],
 "textures" : [
  {
   "source" : 0,
   "sampler" : 0},
  {
   "source" : 1,
   "sampler" : 0}],
 "images" : [
  {
   "uri" : "FabricWeaveCouch001_GLOSS_HIRES.png"},
  {
   "uri" : "FabricWeaveCouch001_NRM_HIRES.png"}],
 "extensionsUsed" : [
  "KHR_texture_transform"]}