{
 "asset" : {
  "generator" : "Generated by PiXYZStudio 2020.1",
  "version" : "2.0"},
 "nodes" : [
  {
   "name" : "Belite Drafting Chair",
   "matrix" : [
    1,
    0,
    0,
    0,
    0,
    0,
    -1,
    0,
    0,
    1,
    0,
    0,
    0,
    0,
    0,
    1],
   "mesh" : 0},
  {
   "name" : "Root",
   "matrix" : [
    0.001,
    0,
    0,
    0,
    0,
    0.001,
    0,
    0,
    0,
    0,
    0.001,
    0,
    0,
    0,
    0,
    1],
   "children" : [
    0]}],
 "scenes" : [
  {
   "name" : "Root",
   "nodes" : [
    1]}],
 "scene" : 0,
 "buffers" : [
  {
   "byteLength" : 1888284,
   "uri" : "BeLite Drafting Chair.bin"}],
 "bufferViews" : [
  {
   "buffer" : 0,
   "byteOffset" : 0,
   "byteLength" : 231468,
   "target" : 34963},
  {
   "buffer" : 0,
   "byteOffset" : 231468,
   "byteLength" : 828408,
   "byteStride" : 12,
   "target" : 34962},
  {
   "buffer" : 0,
   "byteOffset" : 1336012,
   "byteLength" : 552272,
   "byteStride" : 16,
   "target" : 34962},
  {
   "buffer" : 0,
   "byteOffset" : 1059876,
   "byteLength" : 276136,
   "byteStride" : 8,
   "target" : 34962}],
 "accessors" : [
  {
   "bufferView" : 0,
   "count" : 8550,
   "componentType" : 5123,
   "type" : "SCALAR",
   "byteOffset" : 0,
   "min" : [
    12860],
   "max" : [
    34516]},
  {
   "bufferView" : 0,
   "count" : 85788,
   "componentType" : 5123,
   "type" : "SCALAR",
   "byteOffset" : 17100,
   "min" : [
    0],
   "max" : [
    33022]},
  {
   "bufferView" : 0,
   "count" : 13356,
   "componentType" : 5123,
   "type" : "SCALAR",
   "byteOffset" : 188676,
   "min" : [
    356],
   "max" : [
    14030]},
  {
   "bufferView" : 0,
   "count" : 8040,
   "componentType" : 5123,
   "type" : "SCALAR",
   "byteOffset" : 215388,
   "min" : [
    15074],
   "max" : [
    18900]},
  {
   "bufferView" : 2,
   "count" : 34517,
   "componentType" : 5126,
   "type" : "VEC4",
   "byteOffset" : 0,
   "min" : [
    0.000000,
    0.000000,
    0.000000,
    1.000000],
   "max" : [
    0.000000,
    0.000000,
    0.000000,
    1.000000]},
  {
   "bufferView" : 1,
   "count" : 34517,
   "componentType" : 5126,
   "type" : "VEC3",
   "byteOffset" : 0,
   "min" : [
    -339.692841,
    -318.12793,
    0],
   "max" : [
    339.692841,
    345.106201,
    1124.827515]},
  {
   "bufferView" : 1,
   "count" : 34517,
   "componentType" : 5126,
   "type" : "VEC3",
   "byteOffset" : 414204,
   "min" : [
    -1,
    -1,
    -1],
   "max" : [
    1,
    1,
    1]},
  {
   "bufferView" : 3,
   "count" : 34517,
   "componentType" : 5126,
   "type" : "VEC2",
   "byteOffset" : 0,
   "min" : [
    0,
    0.339439],
   "max" : [
    0.316624,
    1]}],
 "meshes" : [
  {
   "primitives" : [
    {
     "mode" : 4,
     "material" : 0,
     "indices" : 0,
     "attributes" : {
      "POSITION" : 5,
      "NORMAL" : 6,
      "TANGENT" : 4,
      "TEXCOORD_0" : 7}},
    {
     "mode" : 4,
     "material" : 1,
     "indices" : 1,
     "attributes" : {
      "POSITION" : 5,
      "NORMAL" : 6,
      "TANGENT" : 4,
      "TEXCOORD_0" : 7}},
    {
     "mode" : 4,
     "material" : 2,
     "indices" : 2,
     "attributes" : {
      "POSITION" : 5,
      "NORMAL" : 6,
      "TANGENT" : 4,
      "TEXCOORD_0" : 7}},
    {
     "mode" : 4,
     "material" : 3,
     "indices" : 3,
     "attributes" : {
      "POSITION" : 5,
      "NORMAL" : 6,
      "TANGENT" : 4,
      "TEXCOORD_0" : 7}}]}],
 "materials" : [
  {
   "name" : "new PBR",
   "pbrMetallicRoughness" : {
    "baseColorFactor" : [0.000000, 0.000000, 0.000000, 1.000000],
    "metallicFactor" : 0.59239,
    "roughnessFactor" : 0.3587}},
  {
   "name" : "black  body",
   "pbrMetallicRoughness" : {
    "baseColorFactor" : [0.000000, 0.000000, 0.000000, 1.000000],
    "metallicFactor" : 0,
    "roughnessFactor" : 0.84511}},
  {
   "name" : "Purple",
   "pbrMetallicRoughness" : {
    "baseColorFactor" : [0.000000, 0.000000, 0.000000, 1.000000],
    "metallicFactor" : 0,
    "roughnessFactor" : 0.58967}},
  {
   "name" : "new PBR",
   "pbrMetallicRoughness" : {
    "baseColorTexture" : {
     "index" : 0,
     "texCoord" : 0,
     "extensions" : {
      "KHR_texture_transform" : {
       "offset" : [
        0,
        0],
       "scale" : [
        5,
        5]}}},
    "metallicFactor" : 0,
    "roughnessFactor" : 1},
   "normalTexture" : {
    "index" : 1,
    "texCoord" : 0,
    "extensions" : {
     "KHR_texture_transform" : {
      "offset" : [
       0,
       0],
      "scale" : [
       5,
       5]}}}}],
 "samplers" : [
  {
}],
 "textures" : [
  {
   "source" : 0,
   "sampler" : 0},
  {
   "source" : 1,
   "sampler" : 0}],
 "images" : [
  {
   "uri" : "FabricWeaveCouch001_GLOSS_HIRES.png"},
  {
   "uri" : "FabricWeaveCouch001_NRM_HIRES.png"}],
 "extensionsUsed" : [
  "KHR_texture_transform"]}