{
 "asset" : {
  "generator" : "Generated by PiXYZStudio 2020.1",
  "version" : "2.0"},
 "nodes" : [
  {
   "name" : "Layer:AFUFU-3D-CH-ST (1)",
   "matrix" : [
    1,
    0,
    0,
    0,
    0,
    -0,
    1,
    0,
    0,
    -1,
    -0,
    0,
    1.244659,
    -524.196533,
    -73.75045,
    1],
   "mesh" : 0},
  {
   "name" : "Root",
   "matrix" : [
    0.001,
    0,
    0,
    0,
    0,
    0.001,
    0,
    0,
    0,
    0,
    0.001,
    0,
    0,
    0,
    0,
    1],
   "children" : [
    0]}],
 "scenes" : [
  {
   "name" : "Root",
   "nodes" : [
    1]}],
 "scene" : 0,
 "buffers" : [
  {
   "byteLength" : 1485148,
   "uri" : "BeLite_Chair.bin"}],
 "bufferViews" : [
  {
   "buffer" : 0,
   "byteOffset" : 0,
   "byteLength" : 202844,
   "target" : 34963},
  {
   "buffer" : 0,
   "byteOffset" : 202844,
   "byteLength" : 961728,
   "byteStride" : 12,
   "target" : 34962},
  {
   "buffer" : 0,
   "byteOffset" : 1164572,
   "byteLength" : 320576,
   "byteStride" : 8,
   "target" : 34962}],
 "accessors" : [
  {
   "bufferView" : 0,
   "count" : 97425,
   "componentType" : 5123,
   "type" : "SCALAR",
   "byteOffset" : 0,
   "min" : [
    0],
   "max" : [
    40071]},
  {
   "bufferView" : 0,
   "count" : 3996,
   "componentType" : 5123,
   "type" : "SCALAR",
   "byteOffset" : 194852,
   "min" : [
    5430],
   "max" : [
    9783]},
  {
   "bufferView" : 1,
   "count" : 40072,
   "componentType" : 5126,
   "type" : "VEC3",
   "byteOffset" : 0,
   "min" : [
    -339.335083,
    -244.194473,
    -524.196533],
   "max" : [
    339.335083,
    419.039612,
    600.482666]},
  {
   "bufferView" : 1,
   "count" : 40072,
   "componentType" : 5126,
   "type" : "VEC3",
   "byteOffset" : 480864,
   "min" : [
    -1,
    -1,
    -1],
   "max" : [
    1,
    1,
    1]},
  {
   "bufferView" : 2,
   "count" : 40072,
   "componentType" : 5126,
   "type" : "VEC2",
   "byteOffset" : 0,
   "min" : [
    -0.000006,
    -24.4],
   "max" : [
    25.400005,
    1]}],
 "meshes" : [
  {
   "primitives" : [
    {
     "mode" : 4,
     "material" : 0,
     "indices" : 0,
     "attributes" : {
      "POSITION" : 2,
      "NORMAL" : 3,
      "TEXCOORD_0" : 4}},
    {
     "mode" : 4,
     "material" : 1,
     "indices" : 1,
     "attributes" : {
      "POSITION" : 2,
      "NORMAL" : 3,
      "TEXCOORD_0" : 4}}]}],
 "materials" : [
  {
   "name" : "new PBR_4",
   "pbrMetallicRoughness" : {
    "baseColorFactor" : [0.101961, 0.101961, 0.101961, 1.000000],
    "metallicFactor" : 0.76902,
    "roughnessFactor" : 0.92663}},
  {
   "name" : "new PBR_2",
   "pbrMetallicRoughness" : {
    "baseColorTexture" : {
     "index" : 0,
     "texCoord" : 0,
     "extensions" : {
      "KHR_texture_transform" : {
       "offset" : [
        0,
        0],
       "scale" : [
        5,
        5]}}},
    "metallicFactor" : 0,
    "roughnessFactor" : 1},
   "normalTexture" : {
    "index" : 1,
    "texCoord" : 0,
    "extensions" : {
     "KHR_texture_transform" : {
      "offset" : [
       0,
       0],
      "scale" : [
       5,
       5]}}}}],
 "samplers" : [
  {
}],
 "textures" : [
  {
   "source" : 0,
   "sampler" : 0},
  {
   "source" : 1,
   "sampler" : 0}],
 "images" : [
  {
   "uri" : "FabricWeaveCouch001_GLOSS_HIRES.png"},
  {
   "uri" : "FabricWeaveCouch001_NRM_HIRES.png"}],
 "extensionsUsed" : [
  "KHR_texture_transform"]}