{
 "asset" : {
  "generator" : "Generated by PiXYZStudio 2020.1",
  "version" : "2.0"},
 "nodes" : [
  {
   "name" : "EDO_Meet",
   "matrix" : [
    1,
    0,
    0,
    0,
    0,
    0,
    -1,
    0,
    0,
    1,
    0,
    0,
    0,
    0,
    0,
    1],
   "mesh" : 0},
  {
   "name" : "Root",
   "matrix" : [
    0.001,
    0,
    0,
    0,
    0,
    0.001,
    0,
    0,
    0,
    0,
    0.001,
    0,
    0,
    0,
    0,
    1],
   "children" : [
    0]}],
 "scenes" : [
  {
   "name" : "Root",
   "nodes" : [
    1]}],
 "scene" : 0,
 "buffers" : [
  {
   "byteLength" : 300712,
   "uri" : "EDO_Meet.bin"}],
 "bufferViews" : [
  {
   "buffer" : 0,
   "byteOffset" : 0,
   "byteLength" : 23432,
   "target" : 34963},
  {
   "buffer" : 0,
   "byteOffset" : 23432,
   "byteLength" : 207960,
   "byteStride" : 12,
   "target" : 34962},
  {
   "buffer" : 0,
   "byteOffset" : 231392,
   "byteLength" : 69320,
   "byteStride" : 8,
   "target" : 34962}],
 "accessors" : [
  {
   "bufferView" : 0,
   "count" : 2148,
   "componentType" : 5123,
   "type" : "SCALAR",
   "byteOffset" : 0,
   "min" : [
    0],
   "max" : [
    8664]},
  {
   "bufferView" : 0,
   "count" : 432,
   "componentType" : 5123,
   "type" : "SCALAR",
   "byteOffset" : 4296,
   "min" : [
    7685],
   "max" : [
    8652]},
  {
   "bufferView" : 0,
   "count" : 30,
   "componentType" : 5123,
   "type" : "SCALAR",
   "byteOffset" : 5160,
   "min" : [
    8477],
   "max" : [
    8488]},
  {
   "bufferView" : 0,
   "count" : 717,
   "componentType" : 5123,
   "type" : "SCALAR",
   "byteOffset" : 5220,
   "min" : [
    1234],
   "max" : [
    8428]},
  {
   "bufferView" : 0,
   "count" : 8388,
   "componentType" : 5123,
   "type" : "SCALAR",
   "byteOffset" : 6656,
   "min" : [
    144],
   "max" : [
    7912]},
  {
   "bufferView" : 1,
   "count" : 8665,
   "componentType" : 5126,
   "type" : "VEC3",
   "byteOffset" : 0,
   "min" : [
    -1150,
    -715.000061,
    -0],
   "max" : [
    1150,
    715.000061,
    1400]},
  {
   "bufferView" : 1,
   "count" : 8665,
   "componentType" : 5126,
   "type" : "VEC3",
   "byteOffset" : 103980,
   "min" : [
    -1,
    -1,
    -1],
   "max" : [
    1,
    1,
    1]},
  {
   "bufferView" : 2,
   "count" : 8665,
   "componentType" : 5126,
   "type" : "VEC2",
   "byteOffset" : 0,
   "min" : [
    0.000977,
    0.001959],
   "max" : [
    1,
    1]}],
 "meshes" : [
  {
   "primitives" : [
    {
     "mode" : 4,
     "material" : 0,
     "indices" : 0,
     "attributes" : {
      "POSITION" : 5,
      "NORMAL" : 6,
      "TEXCOORD_0" : 7}},
    {
     "mode" : 4,
     "material" : 1,
     "indices" : 1,
     "attributes" : {
      "POSITION" : 5,
      "NORMAL" : 6,
      "TEXCOORD_0" : 7}},
    {
     "mode" : 4,
     "material" : 2,
     "indices" : 2,
     "attributes" : {
      "POSITION" : 5,
      "NORMAL" : 6,
      "TEXCOORD_0" : 7}},
    {
     "mode" : 4,
     "material" : 3,
     "indices" : 3,
     "attributes" : {
      "POSITION" : 5,
      "NORMAL" : 6,
      "TEXCOORD_0" : 7}},
    {
     "mode" : 4,
     "material" : 4,
     "indices" : 4,
     "attributes" : {
      "POSITION" : 5,
      "NORMAL" : 6,
      "TEXCOORD_0" : 7}}]}],
 "materials" : [
  {
   "name" : "Color #ffffffff_1",
   "pbrMetallicRoughness" : {
    "baseColorFactor" : [0.000000, 0.000000, 0.000000, 1.000000],
    "metallicFactor" : 0.40489,
    "roughnessFactor" : 0.66033}},
  {
   "name" : "Color #ff7f00ff_1",
   "pbrMetallicRoughness" : {
    "baseColorTexture" : {
     "index" : 0,
     "texCoord" : 0},
    "metallicFactor" : 0,
    "roughnessFactor" : 0.43575},
   "normalTexture" : {
    "index" : 1,
    "texCoord" : 0}},
  {
   "name" : "Color #ffffffff",
   "pbrMetallicRoughness" : {
    "baseColorFactor" : [1.000000, 1.000000, 1.000000, 1.000000],
    "metallicFactor" : 0,
    "roughnessFactor" : 1}},
  {
   "name" : "Color #808080ff",
   "alphaMode" : "BLEND",
   "pbrMetallicRoughness" : {
    "baseColorTexture" : {
     "index" : 2,
     "texCoord" : 0,
     "extensions" : {
      "KHR_texture_transform" : {
       "offset" : [
        0,
        0],
       "scale" : [
        5,
        5]}}},
    "metallicFactor" : 0,
    "roughnessFactor" : 1},
   "normalTexture" : {
    "index" : 3,
    "texCoord" : 0,
    "extensions" : {
     "KHR_texture_transform" : {
      "offset" : [
       0,
       0],
      "scale" : [
       5,
       5]}}}},
  {
   "name" : "Color #ff7f00ff",
   "alphaMode" : "BLEND",
   "pbrMetallicRoughness" : {
    "baseColorTexture" : {
     "index" : 4,
     "texCoord" : 0,
     "extensions" : {
      "KHR_texture_transform" : {
       "offset" : [
        0,
        0],
       "scale" : [
        5,
        5]}}},
    "metallicFactor" : 0,
    "roughnessFactor" : 1},
   "normalTexture" : {
    "index" : 5,
    "texCoord" : 0,
    "extensions" : {
     "KHR_texture_transform" : {
      "offset" : [
       0,
       0],
      "scale" : [
       5,
       5]}}}}],
 "samplers" : [
  {
}],
 "textures" : [
  {
   "source" : 0,
   "sampler" : 0},
  {
   "source" : 1,
   "sampler" : 0},
  {
   "source" : 2,
   "sampler" : 0},
  {
   "source" : 3,
   "sampler" : 0},
  {
   "source" : 4,
   "sampler" : 0},
  {
   "source" : 5,
   "sampler" : 0}],
 "images" : [
  {
   "uri" : "WoodPlankedWhiteOak001_COL_4K.png"},
  {
   "uri" : "WoodPlankedWhiteOak001_NRM_4K.png"},
  {
   "uri" : "FabricFeltGrey001_COL_8K.png"},
  {
   "uri" : "FabricFeltGrey001_NRM_8K.png"},
  {
   "uri" : "Fog.png"},
  {
   "uri" : "FabricWeaveCouch001_NRM_HIRES.png"}],
 "extensionsUsed" : [
  "KHR_texture_transform"]}