{
 "asset" : {
  "generator" : "Generated by PiXYZStudio 2020.1",
  "version" : "2.0"},
 "nodes" : [
  {
   "name" : "EDO Meet",
   "matrix" : [
    1,
    0,
    0,
    0,
    0,
    0,
    -1,
    0,
    0,
    1,
    0,
    0,
    0,
    0,
    0,
    1],
   "mesh" : 0},
  {
   "name" : "Root",
   "matrix" : [
    0.001,
    0,
    0,
    0,
    0,
    0.001,
    0,
    0,
    0,
    0,
    0.001,
    0,
    0,
    0,
    0,
    1],
   "children" : [
    0]}],
 "scenes" : [
  {
   "name" : "Root",
   "nodes" : [
    1]}],
 "scene" : 0,
 "buffers" : [
  {
   "byteLength" : 402204,
   "uri" : "EDO_Meet.bin"}],
 "bufferViews" : [
  {
   "buffer" : 0,
   "byteOffset" : 0,
   "byteLength" : 27284,
   "target" : 34963},
  {
   "buffer" : 0,
   "byteOffset" : 27284,
   "byteLength" : 224952,
   "byteStride" : 12,
   "target" : 34962},
  {
   "buffer" : 0,
   "byteOffset" : 252236,
   "byteLength" : 149968,
   "byteStride" : 8,
   "target" : 34962}],
 "accessors" : [
  {
   "bufferView" : 0,
   "count" : 222,
   "componentType" : 5123,
   "type" : "SCALAR",
   "byteOffset" : 0,
   "min" : [
    0],
   "max" : [
    115]},
  {
   "bufferView" : 0,
   "count" : 9807,
   "componentType" : 5123,
   "type" : "SCALAR",
   "byteOffset" : 444,
   "min" : [
    116],
   "max" : [
    7162]},
  {
   "bufferView" : 0,
   "count" : 924,
   "componentType" : 5123,
   "type" : "SCALAR",
   "byteOffset" : 20060,
   "min" : [
    7163],
   "max" : [
    7784]},
  {
   "bufferView" : 0,
   "count" : 2688,
   "componentType" : 5123,
   "type" : "SCALAR",
   "byteOffset" : 21908,
   "min" : [
    7785],
   "max" : [
    9372]},
  {
   "bufferView" : 1,
   "count" : 9373,
   "componentType" : 5126,
   "type" : "VEC3",
   "byteOffset" : 0,
   "min" : [
    -1150,
    -715.000061,
    -0],
   "max" : [
    1150,
    715.000061,
    1400]},
  {
   "bufferView" : 1,
   "count" : 9373,
   "componentType" : 5126,
   "type" : "VEC3",
   "byteOffset" : 112476,
   "min" : [
    -1,
    -1,
    -1],
   "max" : [
    1,
    1,
    1]},
  {
   "bufferView" : 2,
   "count" : 9373,
   "componentType" : 5126,
   "type" : "VEC2",
   "byteOffset" : 0,
   "min" : [
    0.000977,
    0.001955],
   "max" : [
    0.99605,
    0.999023]},
  {
   "bufferView" : 2,
   "count" : 9373,
   "componentType" : 5126,
   "type" : "VEC2",
   "byteOffset" : 74984,
   "min" : [
    0.005359,
    -63.644638],
   "max" : [
    64.5,
    -3.351363]}],
 "meshes" : [
  {
   "primitives" : [
    {
     "mode" : 4,
     "material" : 0,
     "indices" : 0,
     "attributes" : {
      "POSITION" : 4,
      "NORMAL" : 5,
      "TEXCOORD_0" : 6,
      "TEXCOORD_1" : 7}},
    {
     "mode" : 4,
     "material" : 1,
     "indices" : 1,
     "attributes" : {
      "POSITION" : 4,
      "NORMAL" : 5,
      "TEXCOORD_0" : 6,
      "TEXCOORD_1" : 7}},
    {
     "mode" : 4,
     "material" : 2,
     "indices" : 2,
     "attributes" : {
      "POSITION" : 4,
      "NORMAL" : 5,
      "TEXCOORD_0" : 6,
      "TEXCOORD_1" : 7}},
    {
     "mode" : 4,
     "material" : 3,
     "indices" : 3,
     "attributes" : {
      "POSITION" : 4,
      "NORMAL" : 5,
      "TEXCOORD_0" : 6,
      "TEXCOORD_1" : 7}}]}],
 "materials" : [
  {
   "name" : "Color #ff7f00ff_1",
   "pbrMetallicRoughness" : {
    "baseColorTexture" : {
     "index" : 0,
     "texCoord" : 0},
    "metallicFactor" : 0,
    "roughnessFactor" : 0.43575},
   "normalTexture" : {
    "index" : 1,
    "texCoord" : 0}},
  {
   "name" : "Color #ff7f00ff",
   "alphaMode" : "BLEND",
   "pbrMetallicRoughness" : {
    "baseColorTexture" : {
     "index" : 2,
     "texCoord" : 0},
    "metallicFactor" : 0,
    "roughnessFactor" : 1},
   "normalTexture" : {
    "index" : 3,
    "texCoord" : 0}},
  {
   "name" : "Color #808080ff",
   "alphaMode" : "BLEND",
   "pbrMetallicRoughness" : {
    "baseColorTexture" : {
     "index" : 4,
     "texCoord" : 0},
    "metallicFactor" : 0,
    "roughnessFactor" : 1},
   "normalTexture" : {
    "index" : 5,
    "texCoord" : 0}},
  {
   "name" : "Color #ffffffff_1",
   "pbrMetallicRoughness" : {
    "baseColorFactor" : [0.000000, 0.000000, 0.000000, 1.000000],
    "metallicFactor" : 0.40489,
    "roughnessFactor" : 0.66033}}],
 "samplers" : [
  {
}],
 "textures" : [
  {
   "source" : 0,
   "sampler" : 0},
  {
   "source" : 1,
   "sampler" : 0},
  {
   "source" : 2,
   "sampler" : 0},
  {
   "source" : 3,
   "sampler" : 0},
  {
   "source" : 4,
   "sampler" : 0},
  {
   "source" : 5,
   "sampler" : 0}],
 "images" : [
  {
   "uri" : "img1.png"},
  {
   "uri" : "img0.png"},
  {
   "uri" : "img5.png"},
  {
   "uri" : "img4.png"},
  {
   "uri" : "img3.png"},
  {
   "uri" : "img2.png"}]}