{
 "asset" : {
  "generator" : "Generated by PiXYZStudio 2020.1",
  "version" : "2.0"},
 "nodes" : [
  {
   "name" : "EDO Meet",
   "matrix" : [
    0.001,
    0,
    0,
    0,
    0,
    -0,
    -0.001,
    0,
    0,
    0.001,
    -0,
    0,
    0,
    0,
    0,
    1],
   "mesh" : 0},
  {
   "name" : "Root",
   "matrix" : [
    0.001,
    0,
    0,
    0,
    0,
    0.001,
    0,
    0,
    0,
    0,
    0.001,
    0,
    0,
    0,
    0,
    1],
   "children" : [
    0]}],
 "scenes" : [
  {
   "name" : "Root",
   "nodes" : [
    1]}],
 "scene" : 0,
 "buffers" : [
  {
   "byteLength" : 512764,
   "uri" : "EDO_Meet.bin"}],
 "bufferViews" : [
  {
   "buffer" : 0,
   "byteOffset" : 0,
   "byteLength" : 27284,
   "target" : 34963},
  {
   "buffer" : 0,
   "byteOffset" : 27284,
   "byteLength" : 291288,
   "byteStride" : 12,
   "target" : 34962},
  {
   "buffer" : 0,
   "byteOffset" : 318572,
   "byteLength" : 194192,
   "byteStride" : 8,
   "target" : 34962}],
 "accessors" : [
  {
   "bufferView" : 0,
   "count" : 13641,
   "componentType" : 5123,
   "type" : "SCALAR",
   "byteOffset" : 0,
   "min" : [
    0],
   "max" : [
    12136]},
  {
   "bufferView" : 1,
   "count" : 12137,
   "componentType" : 5126,
   "type" : "VEC3",
   "byteOffset" : 0,
   "min" : [
    -1150000,
    -715000.0625,
    -0],
   "max" : [
    1150000,
    715000.0625,
    1400000]},
  {
   "bufferView" : 1,
   "count" : 12137,
   "componentType" : 5126,
   "type" : "VEC3",
   "byteOffset" : 145644,
   "min" : [
    -1,
    -1,
    -1],
   "max" : [
    1,
    1,
    1]},
  {
   "bufferView" : 2,
   "count" : 12137,
   "componentType" : 5126,
   "type" : "VEC2",
   "byteOffset" : 0,
   "min" : [
    0.000136,
    -4.688536],
   "max" : [
    4.599464,
    1]},
  {
   "bufferView" : 2,
   "count" : 12137,
   "componentType" : 5126,
   "type" : "VEC2",
   "byteOffset" : 97096,
   "min" : [
    0.005359,
    -63.644638],
   "max" : [
    64.5,
    -3.351363]}],
 "meshes" : [
  {
   "primitives" : [
    {
     "mode" : 4,
     "material" : 0,
     "indices" : 0,
     "attributes" : {
      "POSITION" : 1,
      "NORMAL" : 2,
      "TEXCOORD_0" : 3,
      "TEXCOORD_1" : 4}}]}],
 "materials" : [
  {
   "name" : "Color #808080ff",
   "alphaMode" : "BLEND",
   "pbrMetallicRoughness" : {
    "baseColorTexture" : {
     "index" : 0,
     "texCoord" : 0},
    "metallicFactor" : 0,
    "roughnessFactor" : 1},
   "normalTexture" : {
    "index" : 1,
    "texCoord" : 0}}],
 "samplers" : [
  {
}],
 "textures" : [
  {
   "source" : 0,
   "sampler" : 0},
  {
   "source" : 1,
   "sampler" : 0}],
 "images" : [
  {
   "uri" : "img3.png"},
  {
   "uri" : "img2.png"}]}