{
 "asset" : {
  "generator" : "Generated by PiXYZStudio 2020.1",
  "version" : "2.0"},
 "nodes" : [
  {
   "name" : "Color #808080ff",
   "mesh" : 0},
  {
   "name" : "Color #ff7f00ff",
   "mesh" : 1},
  {
   "name" : "Color #ff7f00ff_1",
   "mesh" : 2},
  {
   "name" : "Color #ffffffff_1",
   "mesh" : 3},
  {
   "name" : "EDO Meet",
   "matrix" : [
    0.001,
    0,
    0,
    0,
    0,
    -0,
    -0.001,
    0,
    0,
    0.001,
    -0,
    0,
    0,
    0,
    0,
    1],
   "children" : [
    0,
    1,
    2,
    3]},
  {
   "name" : "Root",
   "matrix" : [
    0.001,
    0,
    0,
    0,
    0,
    0.001,
    0,
    0,
    0,
    0,
    0.001,
    0,
    0,
    0,
    0,
    1],
   "children" : [
    4]}],
 "scenes" : [
  {
   "name" : "Root",
   "nodes" : [
    5]}],
 "scene" : 0,
 "buffers" : [
  {
   "byteLength" : 350840,
   "uri" : "EDO_Meet.bin"}],
 "bufferViews" : [
  {
   "buffer" : 0,
   "byteOffset" : 0,
   "byteLength" : 27080,
   "target" : 34963},
  {
   "buffer" : 0,
   "byteOffset" : 27080,
   "byteLength" : 194256,
   "byteStride" : 12,
   "target" : 34962},
  {
   "buffer" : 0,
   "byteOffset" : 221336,
   "byteLength" : 129504,
   "byteStride" : 8,
   "target" : 34962}],
 "accessors" : [
  {
   "bufferView" : 0,
   "count" : 924,
   "componentType" : 5123,
   "type" : "SCALAR",
   "byteOffset" : 0,
   "min" : [
    0],
   "max" : [
    852]},
  {
   "bufferView" : 0,
   "count" : 9705,
   "componentType" : 5123,
   "type" : "SCALAR",
   "byteOffset" : 1848,
   "min" : [
    0],
   "max" : [
    4872]},
  {
   "bufferView" : 0,
   "count" : 222,
   "componentType" : 5123,
   "type" : "SCALAR",
   "byteOffset" : 21260,
   "min" : [
    0],
   "max" : [
    173]},
  {
   "bufferView" : 0,
   "count" : 2688,
   "componentType" : 5123,
   "type" : "SCALAR",
   "byteOffset" : 21704,
   "min" : [
    0],
   "max" : [
    2193]},
  {
   "bufferView" : 1,
   "count" : 853,
   "componentType" : 5126,
   "type" : "VEC3",
   "byteOffset" : 0,
   "min" : [
    -1085000,
    -650000,
    325000],
   "max" : [
    1085000,
    650000,
    970000]},
  {
   "bufferView" : 1,
   "count" : 853,
   "componentType" : 5126,
   "type" : "VEC3",
   "byteOffset" : 10236,
   "min" : [
    -1,
    -1,
    -1],
   "max" : [
    1,
    1,
    1]},
  {
   "bufferView" : 1,
   "count" : 4873,
   "componentType" : 5126,
   "type" : "VEC3",
   "byteOffset" : 20472,
   "min" : [
    -1150000,
    -715000.0625,
    280000],
   "max" : [
    1150000,
    715000.0625,
    1400000]},
  {
   "bufferView" : 1,
   "count" : 4873,
   "componentType" : 5126,
   "type" : "VEC3",
   "byteOffset" : 78948,
   "min" : [
    -1,
    -1,
    -1],
   "max" : [
    1,
    1,
    1]},
  {
   "bufferView" : 1,
   "count" : 174,
   "componentType" : 5126,
   "type" : "VEC3",
   "byteOffset" : 137424,
   "min" : [
    -400000,
    -350000,
    695000],
   "max" : [
    400000,
    650000,
    720000]},
  {
   "bufferView" : 1,
   "count" : 174,
   "componentType" : 5126,
   "type" : "VEC3",
   "byteOffset" : 139512,
   "min" : [
    -1,
    -1,
    -1],
   "max" : [
    1,
    0,
    1]},
  {
   "bufferView" : 1,
   "count" : 2194,
   "componentType" : 5126,
   "type" : "VEC3",
   "byteOffset" : 141600,
   "min" : [
    -1085000,
    -650000,
    -0],
   "max" : [
    1085000,
    650000,
    695000]},
  {
   "bufferView" : 1,
   "count" : 2194,
   "componentType" : 5126,
   "type" : "VEC3",
   "byteOffset" : 167928,
   "min" : [
    -1,
    -1,
    -1],
   "max" : [
    1,
    1,
    1]},
  {
   "bufferView" : 2,
   "count" : 853,
   "componentType" : 5126,
   "type" : "VEC2",
   "byteOffset" : 0,
   "min" : [
    0.065,
    -4.625],
   "max" : [
    4.535,
    0.935]},
  {
   "bufferView" : 2,
   "count" : 853,
   "componentType" : 5126,
   "type" : "VEC2",
   "byteOffset" : 6824,
   "min" : [
    0.65,
    -63],
   "max" : [
    61.25,
    -4]},
  {
   "bufferView" : 2,
   "count" : 4873,
   "componentType" : 5126,
   "type" : "VEC2",
   "byteOffset" : 13648,
   "min" : [
    0.000136,
    -4.688536],
   "max" : [
    4.599464,
    0.999864]},
  {
   "bufferView" : 2,
   "count" : 4873,
   "componentType" : 5126,
   "type" : "VEC2",
   "byteOffset" : 52632,
   "min" : [
    0.005359,
    -63.644638],
   "max" : [
    61.688286,
    -3.351363]},
  {
   "bufferView" : 2,
   "count" : 174,
   "componentType" : 5126,
   "type" : "VEC2",
   "byteOffset" : 91616,
   "min" : [
    0.68,
    -4.3075],
   "max" : [
    3.02,
    0.935]},
  {
   "bufferView" : 2,
   "count" : 174,
   "componentType" : 5126,
   "type" : "VEC2",
   "byteOffset" : 93008,
   "min" : [
    8.726849,
    -59.897488],
   "max" : [
    57.549999,
    -4]},
  {
   "bufferView" : 2,
   "count" : 2194,
   "componentType" : 5126,
   "type" : "VEC2",
   "byteOffset" : 94400,
   "min" : [
    0.065,
    -4.625],
   "max" : [
    4.535,
    1]},
  {
   "bufferView" : 2,
   "count" : 2194,
   "componentType" : 5126,
   "type" : "VEC2",
   "byteOffset" : 111952,
   "min" : [
    0.65,
    -63],
   "max" : [
    64.5,
    -3.5]}],
 "meshes" : [
  {
   "primitives" : [
    {
     "mode" : 4,
     "material" : 0,
     "indices" : 0,
     "attributes" : {
      "POSITION" : 4,
      "NORMAL" : 5,
      "TEXCOORD_0" : 12,
      "TEXCOORD_1" : 13}}]},
  {
   "primitives" : [
    {
     "mode" : 4,
     "material" : 1,
     "indices" : 1,
     "attributes" : {
      "POSITION" : 6,
      "NORMAL" : 7,
      "TEXCOORD_0" : 14,
      "TEXCOORD_1" : 15}}]},
  {
   "primitives" : [
    {
     "mode" : 4,
     "material" : 2,
     "indices" : 2,
     "attributes" : {
      "POSITION" : 8,
      "NORMAL" : 9,
      "TEXCOORD_0" : 16,
      "TEXCOORD_1" : 17}}]},
  {
   "primitives" : [
    {
     "mode" : 4,
     "material" : 3,
     "indices" : 3,
     "attributes" : {
      "POSITION" : 10,
      "NORMAL" : 11,
      "TEXCOORD_0" : 18,
      "TEXCOORD_1" : 19}}]}],
 "materials" : [
  {
   "name" : "Color #808080ff",
   "alphaMode" : "BLEND",
   "pbrMetallicRoughness" : {
    "baseColorTexture" : {
     "index" : 0,
     "texCoord" : 0},
    "metallicFactor" : 0,
    "roughnessFactor" : 1},
   "normalTexture" : {
    "index" : 1,
    "texCoord" : 0}},
  {
   "name" : "Color #ff7f00ff",
   "alphaMode" : "BLEND",
   "pbrMetallicRoughness" : {
    "baseColorTexture" : {
     "index" : 2,
     "texCoord" : 0},
    "metallicFactor" : 0,
    "roughnessFactor" : 1},
   "normalTexture" : {
    "index" : 3,
    "texCoord" : 0}},
  {
   "name" : "Color #ff7f00ff_1",
   "pbrMetallicRoughness" : {
    "baseColorTexture" : {
     "index" : 4,
     "texCoord" : 0},
    "metallicFactor" : 0,
    "roughnessFactor" : 0.43575},
   "normalTexture" : {
    "index" : 5,
    "texCoord" : 0}},
  {
   "name" : "Color #ffffffff_1",
   "pbrMetallicRoughness" : {
    "baseColorFactor" : [0.000000, 0.000000, 0.000000, 1.000000],
    "metallicFactor" : 0.40489,
    "roughnessFactor" : 0.66033}}],
 "samplers" : [
  {
}],
 "textures" : [
  {
   "source" : 0,
   "sampler" : 0},
  {
   "source" : 1,
   "sampler" : 0},
  {
   "source" : 2,
   "sampler" : 0},
  {
   "source" : 3,
   "sampler" : 0},
  {
   "source" : 4,
   "sampler" : 0},
  {
   "source" : 5,
   "sampler" : 0}],
 "images" : [
  {
   "uri" : "img3.png"},
  {
   "uri" : "img2.png"},
  {
   "uri" : "img5.png"},
  {
   "uri" : "img4.png"},
  {
   "uri" : "img1.png"},
  {
   "uri" : "img0.png"}]}