{
 "asset" : {
  "generator" : "Generated by PiXYZStudio 2020.1",
  "version" : "2.0"},
 "nodes" : [
  {
   "name" : "9F28",
   "matrix" : [
    1,
    0,
    0,
    0,
    0,
    0,
    -1,
    0,
    0,
    1,
    0,
    0,
    0,
    0,
    0,
    1],
   "mesh" : 0},
  {
   "name" : "Root",
   "matrix" : [
    0.001,
    0,
    0,
    0,
    0,
    0.001,
    0,
    0,
    0,
    0,
    0.001,
    0,
    0,
    0,
    0,
    1],
   "children" : [
    0]}],
 "scenes" : [
  {
   "name" : "Root",
   "nodes" : [
    1]}],
 "scene" : 0,
 "buffers" : [
  {
   "byteLength" : 396360,
   "uri" : "Jac_Sled_Custom.bin"}],
 "bufferViews" : [
  {
   "buffer" : 0,
   "byteOffset" : 0,
   "byteLength" : 43704,
   "target" : 34963},
  {
   "buffer" : 0,
   "byteOffset" : 43704,
   "byteLength" : 176328,
   "byteStride" : 12,
   "target" : 34962},
  {
   "buffer" : 0,
   "byteOffset" : 278808,
   "byteLength" : 117552,
   "byteStride" : 16,
   "target" : 34962},
  {
   "buffer" : 0,
   "byteOffset" : 220032,
   "byteLength" : 58776,
   "byteStride" : 8,
   "target" : 34962}],
 "accessors" : [
  {
   "bufferView" : 0,
   "count" : 21852,
   "componentType" : 5123,
   "type" : "SCALAR",
   "byteOffset" : 0,
   "min" : [
    0],
   "max" : [
    7346]},
  {
   "bufferView" : 2,
   "count" : 7347,
   "componentType" : 5126,
   "type" : "VEC4",
   "byteOffset" : 0,
   "min" : [
    -0.033422,
    -0.105299,
    0.993879,
    1.000000],
   "max" : [
    -0.033422,
    -0.105299,
    0.993879,
    1.000000]},
  {
   "bufferView" : 1,
   "count" : 7347,
   "componentType" : 5126,
   "type" : "VEC3",
   "byteOffset" : 0,
   "min" : [
    -259.924255,
    -265.426178,
    -10.49544],
   "max" : [
    259.924255,
    262.338593,
    823.03363]},
  {
   "bufferView" : 1,
   "count" : 7347,
   "componentType" : 5126,
   "type" : "VEC3",
   "byteOffset" : 88164,
   "min" : [
    -0.999814,
    -0.99986,
    -0.999988],
   "max" : [
    0.999814,
    0.999803,
    0.999989]},
  {
   "bufferView" : 3,
   "count" : 7347,
   "componentType" : 5126,
   "type" : "VEC2",
   "byteOffset" : 0,
   "min" : [
    0.000977,
    0.004557],
   "max" : [
    0.969282,
    0.999023]}],
 "meshes" : [
  {
   "primitives" : [
    {
     "mode" : 4,
     "material" : 0,
     "indices" : 0,
     "attributes" : {
      "POSITION" : 2,
      "NORMAL" : 3,
      "TANGENT" : 1,
      "TEXCOORD_0" : 4}}]}],
 "materials" : [
  {
   "name" : "Baked",
   "pbrMetallicRoughness" : {
    "baseColorTexture" : {
     "index" : 1,
     "texCoord" : 0},
    "metallicRoughnessTexture" : {
     "index" : 0,
     "texCoord" : 0}},
   "normalTexture" : {
    "index" : 2,
    "texCoord" : 0},
   "occlusionTexture" : {
    "index" : 3,
    "texCoord" : 0}}],
 "samplers" : [
  {
}],
 "textures" : [
  {
   "source" : 0,
   "sampler" : 0},
  {
   "source" : 1,
   "sampler" : 0},
  {
   "source" : 2,
   "sampler" : 0},
  {
   "source" : 3,
   "sampler" : 0}],
 "images" : [
  {
   "uri" : "BakedMetallicRoughness.png"},
  {
   "uri" : "Diffuse Map.png"},
  {
   "uri" : "ObjectSpace.png"},
  {
   "uri" : "AO Map.png"}]}