{
 "asset" : {
  "generator" : "Generated by PiXYZStudio 2020.1",
  "version" : "2.0"},
 "nodes" : [
  {
   "name" : "1B60A",
   "matrix" : [
    1,
    0,
    0,
    0,
    0,
    0,
    -1,
    0,
    0,
    1,
    0,
    0,
    0,
    0,
    0,
    1],
   "mesh" : 0},
  {
   "name" : "Root",
   "matrix" : [
    0.001,
    0,
    0,
    0,
    0,
    0.001,
    0,
    0,
    0,
    0,
    0.001,
    0,
    0,
    0,
    0,
    1],
   "children" : [
    0]}],
 "scenes" : [
  {
   "name" : "Root",
   "nodes" : [
    1]}],
 "scene" : 0,
 "buffers" : [
  {
   "byteLength" : 511464,
   "uri" : "JAC_Stool.bin"}],
 "bufferViews" : [
  {
   "buffer" : 0,
   "byteOffset" : 0,
   "byteLength" : 51456,
   "target" : 34963},
  {
   "buffer" : 0,
   "byteOffset" : 51456,
   "byteLength" : 460008,
   "byteStride" : 12,
   "target" : 34962}],
 "accessors" : [
  {
   "bufferView" : 0,
   "count" : 25728,
   "componentType" : 5123,
   "type" : "SCALAR",
   "byteOffset" : 0,
   "min" : [
    0],
   "max" : [
    19166]},
  {
   "bufferView" : 1,
   "count" : 19167,
   "componentType" : 5126,
   "type" : "VEC3",
   "byteOffset" : 0,
   "min" : [
    -249.957306,
    -200.285141,
    -9.956985],
   "max" : [
    249.957306,
    237.868652,
    919.747375]},
  {
   "bufferView" : 1,
   "count" : 19167,
   "componentType" : 5126,
   "type" : "VEC3",
   "byteOffset" : 230004,
   "min" : [
    -1,
    -1,
    -0.99996],
   "max" : [
    1,
    1,
    0.999999]}],
 "meshes" : [
  {
   "primitives" : [
    {
     "mode" : 4,
     "material" : 0,
     "indices" : 0,
     "attributes" : {
      "POSITION" : 1,
      "NORMAL" : 2}}]}],
 "materials" : [
  {
   "name" : "Color #ff7f00ff",
   "pbrMetallicRoughness" : {
    "baseColorFactor" : [0.313725, 0.376471, 0.290196, 1.000000],
    "metallicFactor" : 0,
    "roughnessFactor" : 1}}],
 "samplers" : [
  {
}]}