{
 "asset" : {
  "generator" : "Generated by PiXYZStudio 2020.1",
  "version" : "2.0"},
 "nodes" : [
  {
   "name" : "9F2F",
   "matrix" : [
    1,
    0,
    0,
    0,
    0,
    0,
    -1,
    0,
    0,
    1,
    0,
    0,
    0,
    0,
    0,
    1],
   "mesh" : 0},
  {
   "name" : "Root",
   "matrix" : [
    0.001,
    0,
    0,
    0,
    0,
    0.001,
    0,
    0,
    0,
    0,
    0.001,
    0,
    0,
    0,
    0,
    1],
   "children" : [
    0]}],
 "scenes" : [
  {
   "name" : "Root",
   "nodes" : [
    1]}],
 "scene" : 0,
 "buffers" : [
  {
   "byteLength" : 471360,
   "uri" : "Jac_Sled_Custom.bin"}],
 "bufferViews" : [
  {
   "buffer" : 0,
   "byteOffset" : 0,
   "byteLength" : 43712,
   "target" : 34963},
  {
   "buffer" : 0,
   "byteOffset" : 43712,
   "byteLength" : 320736,
   "byteStride" : 12,
   "target" : 34962},
  {
   "buffer" : 0,
   "byteOffset" : 364448,
   "byteLength" : 106912,
   "byteStride" : 8,
   "target" : 34962}],
 "accessors" : [
  {
   "bufferView" : 0,
   "count" : 144,
   "componentType" : 5123,
   "type" : "SCALAR",
   "byteOffset" : 0,
   "min" : [
    0],
   "max" : [
    95]},
  {
   "bufferView" : 0,
   "count" : 5469,
   "componentType" : 5123,
   "type" : "SCALAR",
   "byteOffset" : 288,
   "min" : [
    96],
   "max" : [
    2782]},
  {
   "bufferView" : 0,
   "count" : 2034,
   "componentType" : 5123,
   "type" : "SCALAR",
   "byteOffset" : 11228,
   "min" : [
    2783],
   "max" : [
    4442]},
  {
   "bufferView" : 0,
   "count" : 2652,
   "componentType" : 5123,
   "type" : "SCALAR",
   "byteOffset" : 15296,
   "min" : [
    4443],
   "max" : [
    6124]},
  {
   "bufferView" : 0,
   "count" : 2250,
   "componentType" : 5123,
   "type" : "SCALAR",
   "byteOffset" : 20600,
   "min" : [
    6125],
   "max" : [
    7972]},
  {
   "bufferView" : 0,
   "count" : 2694,
   "componentType" : 5123,
   "type" : "SCALAR",
   "byteOffset" : 25100,
   "min" : [
    7973],
   "max" : [
    9663]},
  {
   "bufferView" : 0,
   "count" : 1176,
   "componentType" : 5123,
   "type" : "SCALAR",
   "byteOffset" : 30488,
   "min" : [
    9664],
   "max" : [
    10713]},
  {
   "bufferView" : 0,
   "count" : 5436,
   "componentType" : 5123,
   "type" : "SCALAR",
   "byteOffset" : 32840,
   "min" : [
    10714],
   "max" : [
    13363]},
  {
   "bufferView" : 1,
   "count" : 13364,
   "componentType" : 5126,
   "type" : "VEC3",
   "byteOffset" : 0,
   "min" : [
    -259.924255,
    -265.426178,
    -10.49544],
   "max" : [
    259.924255,
    262.338593,
    823.03363]},
  {
   "bufferView" : 1,
   "count" : 13364,
   "componentType" : 5126,
   "type" : "VEC3",
   "byteOffset" : 160368,
   "min" : [
    -1,
    -1,
    -1],
   "max" : [
    1,
    1,
    1]},
  {
   "bufferView" : 2,
   "count" : 13364,
   "componentType" : 5126,
   "type" : "VEC2",
   "byteOffset" : 0,
   "min" : [
    0,
    -0.583294],
   "max" : [
    1.872342,
    1]}],
 "meshes" : [
  {
   "primitives" : [
    {
     "mode" : 4,
     "material" : 0,
     "indices" : 0,
     "attributes" : {
      "POSITION" : 8,
      "NORMAL" : 9,
      "TEXCOORD_0" : 10}},
    {
     "mode" : 4,
     "material" : 1,
     "indices" : 1,
     "attributes" : {
      "POSITION" : 8,
      "NORMAL" : 9,
      "TEXCOORD_0" : 10}},
    {
     "mode" : 4,
     "material" : 0,
     "indices" : 2,
     "attributes" : {
      "POSITION" : 8,
      "NORMAL" : 9,
      "TEXCOORD_0" : 10}},
    {
     "mode" : 4,
     "material" : 1,
     "indices" : 3,
     "attributes" : {
      "POSITION" : 8,
      "NORMAL" : 9,
      "TEXCOORD_0" : 10}},
    {
     "mode" : 4,
     "material" : 0,
     "indices" : 4,
     "attributes" : {
      "POSITION" : 8,
      "NORMAL" : 9,
      "TEXCOORD_0" : 10}},
    {
     "mode" : 4,
     "material" : 1,
     "indices" : 5,
     "attributes" : {
      "POSITION" : 8,
      "NORMAL" : 9,
      "TEXCOORD_0" : 10}},
    {
     "mode" : 4,
     "material" : 0,
     "indices" : 6,
     "attributes" : {
      "POSITION" : 8,
      "NORMAL" : 9,
      "TEXCOORD_0" : 10}},
    {
     "mode" : 4,
     "material" : 1,
     "indices" : 7,
     "attributes" : {
      "POSITION" : 8,
      "NORMAL" : 9,
      "TEXCOORD_0" : 10}}]}],
 "materials" : [
  {
   "name" : "Color #ffffffff_1",
   "pbrMetallicRoughness" : {
    "baseColorFactor" : [0.000000, 0.000000, 0.000000, 1.000000],
    "metallicFactor" : 0.40489,
    "roughnessFactor" : 0.66033}},
  {
   "name" : "Color #ff7f00ff",
   "alphaMode" : "BLEND",
   "pbrMetallicRoughness" : {
    "baseColorTexture" : {
     "index" : 0,
     "texCoord" : 0,
     "extensions" : {
      "KHR_texture_transform" : {
       "offset" : [
        0,
        0],
       "scale" : [
        5,
        5]}}},
    "roughnessFactor" : 1},
   "normalTexture" : {
    "index" : 1,
    "texCoord" : 0,
    "extensions" : {
     "KHR_texture_transform" : {
      "offset" : [
       0,
       0],
      "scale" : [
       5,
       5]}}}}],
 "samplers" : [
  {
}],
 "textures" : [
  {
   "source" : 0,
   "sampler" : 0},
  {
   "source" : 1,
   "sampler" : 0}],
 "images" : [
  {
   "uri" : "Fog.png"},
  {
   "uri" : "FabricWeaveCouch001_NRM_HIRES.png"}],
 "extensionsUsed" : [
  "KHR_texture_transform"]}