{
 "asset" : {
  "generator" : "Generated by PiXYZStudio 2020.1",
  "version" : "2.0"},
 "nodes" : [
  {
   "name" : "JAC Sled",
   "matrix" : [
    1,
    0,
    0,
    0,
    0,
    0,
    -1,
    0,
    0,
    1,
    0,
    0,
    0,
    0,
    0,
    1],
   "mesh" : 0},
  {
   "name" : "Root",
   "matrix" : [
    0.001,
    0,
    0,
    0,
    0,
    0.001,
    0,
    0,
    0,
    0,
    0.001,
    0,
    0,
    0,
    0,
    1],
   "children" : [
    0]}],
 "scenes" : [
  {
   "name" : "Root",
   "nodes" : [
    1]}],
 "scene" : 0,
 "buffers" : [
  {
   "byteLength" : 300920,
   "uri" : "Jac_Sled.bin"}],
 "bufferViews" : [
  {
   "buffer" : 0,
   "byteOffset" : 0,
   "byteLength" : 30536,
   "target" : 34963},
  {
   "buffer" : 0,
   "byteOffset" : 30536,
   "byteLength" : 270384,
   "byteStride" : 12,
   "target" : 34962}],
 "accessors" : [
  {
   "bufferView" : 0,
   "count" : 144,
   "componentType" : 5123,
   "type" : "SCALAR",
   "byteOffset" : 0,
   "min" : [
    0],
   "max" : [
    5196]},
  {
   "bufferView" : 0,
   "count" : 15123,
   "componentType" : 5123,
   "type" : "SCALAR",
   "byteOffset" : 288,
   "min" : [
    68],
   "max" : [
    11265]},
  {
   "bufferView" : 1,
   "count" : 11266,
   "componentType" : 5126,
   "type" : "VEC3",
   "byteOffset" : 0,
   "min" : [
    -259.924255,
    -265.426178,
    -10.49544],
   "max" : [
    259.924255,
    262.338593,
    823.03363]},
  {
   "bufferView" : 1,
   "count" : 11266,
   "componentType" : 5126,
   "type" : "VEC3",
   "byteOffset" : 135192,
   "min" : [
    -1,
    -1,
    -1],
   "max" : [
    1,
    1,
    1]}],
 "meshes" : [
  {
   "primitives" : [
    {
     "mode" : 4,
     "material" : 0,
     "indices" : 0,
     "attributes" : {
      "POSITION" : 2,
      "NORMAL" : 3}},
    {
     "mode" : 4,
     "material" : 1,
     "indices" : 1,
     "attributes" : {
      "POSITION" : 2,
      "NORMAL" : 3}}]}],
 "materials" : [
  {
   "name" : "Color #ffffffff",
   "pbrMetallicRoughness" : {
    "baseColorFactor" : [0.000000, 0.000000, 0.000000, 1.000000],
    "metallicFactor" : 0,
    "roughnessFactor" : 1}},
  {
   "name" : "Color #ff7f00ff",
   "pbrMetallicRoughness" : {
    "baseColorFactor" : [0.435294, 0.513725, 0.431373, 1.000000],
    "metallicFactor" : 0,
    "roughnessFactor" : 1}}],
 "samplers" : [
  {
}]}