{
 "asset" : {
  "generator" : "Generated by PiXYZStudio 2020.1",
  "version" : "2.0"},
 "nodes" : [
  {
   "name" : "Curve003",
   "matrix" : [
    -0,
    25.4,
    0,
    0,
    0,
    0,
    -25.4,
    0,
    25.4,
    0,
    0,
    0,
    0.029419,
    141.917767,
    -450.625208,
    1],
   "mesh" : 0},
  {
   "name" : "Root",
   "matrix" : [
    0.001,
    0,
    0,
    0,
    0,
    0,
    -0.001,
    0,
    0,
    0.001,
    0,
    0,
    0,
    0,
    0,
    1],
   "children" : [
    0]}],
 "scenes" : [
  {
   "name" : "Root",
   "nodes" : [
    1]}],
 "scene" : 0,
 "buffers" : [
  {
   "byteLength" : 615116,
   "uri" : "Jac_Sled_Custom.bin"}],
 "bufferViews" : [
  {
   "buffer" : 0,
   "byteOffset" : 0,
   "byteLength" : 109964,
   "target" : 34963},
  {
   "buffer" : 0,
   "byteOffset" : 109964,
   "byteLength" : 378864,
   "byteStride" : 12,
   "target" : 34962},
  {
   "buffer" : 0,
   "byteOffset" : 488828,
   "byteLength" : 126288,
   "byteStride" : 8,
   "target" : 34962}],
 "accessors" : [
  {
   "bufferView" : 0,
   "count" : 612,
   "componentType" : 5123,
   "type" : "SCALAR",
   "byteOffset" : 0,
   "min" : [
    0],
   "max" : [
    231]},
  {
   "bufferView" : 0,
   "count" : 41280,
   "componentType" : 5123,
   "type" : "SCALAR",
   "byteOffset" : 1224,
   "min" : [
    232],
   "max" : [
    12073]},
  {
   "bufferView" : 0,
   "count" : 1224,
   "componentType" : 5123,
   "type" : "SCALAR",
   "byteOffset" : 83784,
   "min" : [
    12074],
   "max" : [
    12537]},
  {
   "bufferView" : 0,
   "count" : 339,
   "componentType" : 5123,
   "type" : "SCALAR",
   "byteOffset" : 86232,
   "min" : [
    12538],
   "max" : [
    12638]},
  {
   "bufferView" : 0,
   "count" : 612,
   "componentType" : 5123,
   "type" : "SCALAR",
   "byteOffset" : 86912,
   "min" : [
    12639],
   "max" : [
    12870]},
  {
   "bufferView" : 0,
   "count" : 10914,
   "componentType" : 5123,
   "type" : "SCALAR",
   "byteOffset" : 88136,
   "min" : [
    12871],
   "max" : [
    15785]},
  {
   "bufferView" : 1,
   "count" : 15786,
   "componentType" : 5126,
   "type" : "VEC3",
   "byteOffset" : 0,
   "min" : [
    -12.963628,
    -17.74115,
    -10.493283],
   "max" : [
    7.877024,
    14.712662,
    10.490969]},
  {
   "bufferView" : 1,
   "count" : 15786,
   "componentType" : 5126,
   "type" : "VEC3",
   "byteOffset" : 189432,
   "min" : [
    -1,
    -1,
    -1],
   "max" : [
    1,
    1,
    1]},
  {
   "bufferView" : 2,
   "count" : 15786,
   "componentType" : 5126,
   "type" : "VEC2",
   "byteOffset" : 0,
   "min" : [
    0,
    -17.751806],
   "max" : [
    15.990001,
    0.997312]}],
 "meshes" : [
  {
   "primitives" : [
    {
     "mode" : 4,
     "material" : 0,
     "indices" : 0,
     "attributes" : {
      "POSITION" : 6,
      "NORMAL" : 7,
      "TEXCOORD_0" : 8}},
    {
     "mode" : 4,
     "material" : 1,
     "indices" : 1,
     "attributes" : {
      "POSITION" : 6,
      "NORMAL" : 7,
      "TEXCOORD_0" : 8}},
    {
     "mode" : 4,
     "material" : 0,
     "indices" : 2,
     "attributes" : {
      "POSITION" : 6,
      "NORMAL" : 7,
      "TEXCOORD_0" : 8}},
    {
     "mode" : 4,
     "material" : 2,
     "indices" : 3,
     "attributes" : {
      "POSITION" : 6,
      "NORMAL" : 7,
      "TEXCOORD_0" : 8}},
    {
     "mode" : 4,
     "material" : 0,
     "indices" : 4,
     "attributes" : {
      "POSITION" : 6,
      "NORMAL" : 7,
      "TEXCOORD_0" : 8}},
    {
     "mode" : 4,
     "material" : 1,
     "indices" : 5,
     "attributes" : {
      "POSITION" : 6,
      "NORMAL" : 7,
      "TEXCOORD_0" : 8}}]}],
 "materials" : [
  {
   "name" : "Material #26",
   "pbrMetallicRoughness" : {
    "baseColorFactor" : [0.333333, 0.341176, 0.349020, 1.000000],
    "metallicFactor" : 0,
    "roughnessFactor" : 0}},
  {
   "name" : "Material #94",
   "pbrMetallicRoughness" : {
    "baseColorFactor" : [0.360784, 0.521569, 0.352941, 1.000000],
    "metallicFactor" : 0,
    "roughnessFactor" : 1}},
  {
   "name" : "Standard",
   "pbrMetallicRoughness" : {
    "baseColorTexture" : {
     "index" : 0,
     "texCoord" : 0},
    "metallicFactor" : 0,
    "roughnessFactor" : 0.81793}}],
 "samplers" : [
  {
}],
 "textures" : [
  {
   "source" : 0,
   "sampler" : 0}],
 "images" : [
  {
   "uri" : "458640059_detail.png"}]}