{
 "asset" : {
  "generator" : "Generated by PiXYZStudio 2020.1",
  "version" : "2.0"},
 "nodes" : [
  {
   "name" : "Kissen Meet",
   "matrix" : [
    1,
    0,
    0,
    0,
    0,
    0,
    -1,
    0,
    0,
    1,
    0,
    0,
    0,
    0,
    0,
    1],
   "mesh" : 0},
  {
   "name" : "Root",
   "matrix" : [
    0.001,
    0,
    0,
    0,
    0,
    0.001,
    0,
    0,
    0,
    0,
    0.001,
    0,
    0,
    0,
    0,
    1],
   "children" : [
    0]}],
 "scenes" : [
  {
   "name" : "Root",
   "nodes" : [
    1]}],
 "scene" : 0,
 "buffers" : [
  {
   "byteLength" : 447312,
   "uri" : "Kissen_Meet.bin"}],
 "bufferViews" : [
  {
   "buffer" : 0,
   "byteOffset" : 0,
   "byteLength" : 65008,
   "target" : 34963},
  {
   "buffer" : 0,
   "byteOffset" : 65008,
   "byteLength" : 286728,
   "byteStride" : 12,
   "target" : 34962},
  {
   "buffer" : 0,
   "byteOffset" : 351736,
   "byteLength" : 95576,
   "byteStride" : 8,
   "target" : 34962}],
 "accessors" : [
  {
   "bufferView" : 0,
   "count" : 22485,
   "componentType" : 5123,
   "type" : "SCALAR",
   "byteOffset" : 0,
   "min" : [
    0],
   "max" : [
    8005]},
  {
   "bufferView" : 0,
   "count" : 576,
   "componentType" : 5123,
   "type" : "SCALAR",
   "byteOffset" : 44972,
   "min" : [
    8006],
   "max" : [
    8237]},
  {
   "bufferView" : 0,
   "count" : 9441,
   "componentType" : 5123,
   "type" : "SCALAR",
   "byteOffset" : 46124,
   "min" : [
    8238],
   "max" : [
    11946]},
  {
   "bufferView" : 1,
   "count" : 11947,
   "componentType" : 5126,
   "type" : "VEC3",
   "byteOffset" : 0,
   "min" : [
    -1300,
    -600,
    -695.000977],
   "max" : [
    1300,
    600,
    25]},
  {
   "bufferView" : 1,
   "count" : 11947,
   "componentType" : 5126,
   "type" : "VEC3",
   "byteOffset" : 143364,
   "min" : [
    -1,
    -1,
    -1],
   "max" : [
    1,
    1,
    1]},
  {
   "bufferView" : 2,
   "count" : 11947,
   "componentType" : 5126,
   "type" : "VEC2",
   "byteOffset" : 0,
   "min" : [
    0,
    -1.45],
   "max" : [
    2.625,
    1]}],
 "meshes" : [
  {
   "primitives" : [
    {
     "mode" : 4,
     "material" : 0,
     "indices" : 0,
     "attributes" : {
      "POSITION" : 3,
      "NORMAL" : 4,
      "TEXCOORD_0" : 5}},
    {
     "mode" : 4,
     "material" : 1,
     "indices" : 1,
     "attributes" : {
      "POSITION" : 3,
      "NORMAL" : 4,
      "TEXCOORD_0" : 5}},
    {
     "mode" : 4,
     "material" : 0,
     "indices" : 2,
     "attributes" : {
      "POSITION" : 3,
      "NORMAL" : 4,
      "TEXCOORD_0" : 5}}]}],
 "materials" : [
  {
   "name" : "Black Metal",
   "pbrMetallicRoughness" : {
    "baseColorFactor" : [0.000000, 0.000000, 0.000000, 1.000000],
    "metallicFactor" : 0.96196,
    "roughnessFactor" : 0.21467}},
  {
   "name" : "Standard",
   "pbrMetallicRoughness" : {
    "baseColorTexture" : {
     "index" : 1,
     "texCoord" : 0},
    "metallicRoughnessTexture" : {
     "index" : 0,
     "texCoord" : 0}}}],
 "samplers" : [
  {
}],
 "textures" : [
  {
   "source" : 0,
   "sampler" : 0},
  {
   "source" : 1,
   "sampler" : 0}],
 "images" : [
  {
   "uri" : "StandardMetallicRoughness.png"},
  {
   "uri" : "WoodPlankedWhiteOak001_COL_4K.png"}]}