{
 "asset" : {
  "generator" : "Generated by PiXYZStudio 2020.1",
  "version" : "2.0"},
 "nodes" : [
  {
   "name" : "BRep_1",
   "mesh" : 0},
  {
   "name" : "BRep_1",
   "matrix" : [
    1,
    -0,
    -0,
    0,
    0,
    0.173648,
    0.984808,
    0,
    -0,
    -0.984808,
    0.173648,
    0,
    0,
    -223.85118,
    -314.957036,
    1],
   "mesh" : 1},
  {
   "name" : "BRep_1",
   "matrix" : [
    -1,
    0,
    -0,
    0,
    -0,
    -0.173648,
    0.984808,
    0,
    0,
    0.984808,
    0.173648,
    0,
    -0,
    223.85118,
    -314.957036,
    1],
   "mesh" : 1},
  {
   "name" : "BRep_1",
   "matrix" : [
    0,
    -1,
    0,
    0,
    1,
    0,
    -0,
    0,
    0,
    0,
    1,
    0,
    -82.5,
    0,
    -17.5,
    1],
   "mesh" : 2},
  {
   "name" : "EPC027-SINGLE_END_720H_LEG_WELD_600D-r_1.asm:1",
   "matrix" : [
    1,
    0,
    -0,
    0,
    -0,
    1,
    0,
    0,
    0,
    0,
    1,
    0,
    0,
    0,
    0,
    1],
   "children" : [
    0,
    1,
    2,
    3]},
  {
   "name" : "BRep_1",
   "matrix" : [
    0,
    1,
    0,
    0,
    0,
    -0,
    1,
    0,
    1,
    -0,
    -0,
    0,
    -5,
    -133,
    17.5,
    1],
   "mesh" : 3},
  {
   "name" : "BRep_1",
   "matrix" : [
    0,
    1,
    0,
    0,
    0,
    -0,
    1,
    0,
    1,
    -0,
    -0,
    0,
    -5,
    133,
    17.5,
    1],
   "mesh" : 3},
  {
   "name" : "BRep_1",
   "matrix" : [
    1,
    0,
    -0,
    0,
    0,
    0.984808,
    0.173648,
    0,
    0,
    -0.173648,
    0.984808,
    0,
    -0,
    285.539695,
    -664.809991,
    1],
   "mesh" : 4},
  {
   "name" : "BRep_1",
   "matrix" : [
    1,
    -0,
    -0,
    0,
    0,
    0.984808,
    -0.173648,
    0,
    0,
    0.173648,
    0.984808,
    0,
    0,
    -285.539695,
    -664.809991,
    1],
   "mesh" : 4},
  {
   "name" : "EPC034-SINGLE_END_720H_LEG_GENERAL_600D-r_1.asm:1",
   "matrix" : [
    1,
    0,
    -0,
    0,
    -0,
    1,
    0,
    0,
    0,
    0,
    1,
    0,
    865,
    400,
    -52.5,
    1],
   "children" : [
    4,
    5,
    6,
    7,
    8]},
  {
   "name" : "BRep_1",
   "matrix" : [
    1,
    0,
    -0,
    0,
    0,
    1,
    0,
    0,
    -0,
    0,
    1,
    0,
    0,
    0,
    0,
    1],
   "mesh" : 0},
  {
   "name" : "BRep_1",
   "matrix" : [
    1,
    -0,
    -0,
    0,
    0,
    0.173648,
    0.984808,
    0,
    -0,
    -0.984808,
    0.173648,
    0,
    0,
    -223.85118,
    -314.957036,
    1],
   "mesh" : 1},
  {
   "name" : "BRep_1",
   "matrix" : [
    -1,
    0,
    -0,
    0,
    -0,
    -0.173648,
    0.984808,
    0,
    0,
    0.984808,
    0.173648,
    0,
    -0,
    223.85118,
    -314.957036,
    1],
   "mesh" : 1},
  {
   "name" : "BRep_1",
   "matrix" : [
    0,
    -1,
    0,
    0,
    1,
    0,
    -0,
    0,
    0,
    0,
    1,
    0,
    -82.5,
    0,
    -17.5,
    1],
   "mesh" : 2},
  {
   "name" : "EPC027-SINGLE_END_720H_LEG_WELD_600D-r_1.asm:1",
   "matrix" : [
    1,
    0,
    -0,
    0,
    -0,
    1,
    0,
    0,
    0,
    0,
    1,
    0,
    0,
    0,
    0,
    1],
   "children" : [
    10,
    11,
    12,
    13]},
  {
   "name" : "BRep_1",
   "matrix" : [
    0,
    1,
    0,
    0,
    0,
    -0,
    1,
    0,
    1,
    -0,
    -0,
    0,
    -5,
    -133,
    17.5,
    1],
   "mesh" : 3},
  {
   "name" : "BRep_1",
   "matrix" : [
    0,
    1,
    0,
    0,
    0,
    -0,
    1,
    0,
    1,
    -0,
    -0,
    0,
    -5,
    133,
    17.5,
    1],
   "mesh" : 3},
  {
   "name" : "BRep_1",
   "matrix" : [
    1,
    0,
    -0,
    0,
    0,
    0.984808,
    0.173648,
    0,
    0,
    -0.173648,
    0.984808,
    0,
    -0,
    285.539695,
    -664.809991,
    1],
   "mesh" : 4},
  {
   "name" : "BRep_1",
   "matrix" : [
    1,
    -0,
    -0,
    0,
    0,
    0.984808,
    -0.173648,
    0,
    0,
    0.173648,
    0.984808,
    0,
    -0,
    -285.539695,
    -664.809991,
    1],
   "mesh" : 4},
  {
   "name" : "EPC034-SINGLE_END_720H_LEG_GENERAL_600D-r_1.asm:2",
   "matrix" : [
    -1,
    0,
    0,
    0,
    -0,
    -1,
    -0,
    0,
    0,
    -0,
    1,
    0,
    -865,
    400,
    -52.5,
    1],
   "children" : [
    14,
    15,
    16,
    17,
    18]},
  {
   "name" : "BRep_1",
   "matrix" : [
    -1,
    -0,
    -0,
    0,
    0,
    -1,
    0,
    0,
    -0,
    0,
    1,
    0,
    -0,
    400,
    -25,
    1],
   "mesh" : 5},
  {
   "name" : "Master",
   "matrix" : [
    1,
    0,
    0,
    0,
    0,
    0,
    -1,
    0,
    0,
    1,
    0,
    0,
    0,
    0,
    0,
    1],
   "children" : [
    9,
    19,
    20]},
  {
   "name" : "Root",
   "matrix" : [
    0.001,
    0,
    0,
    0,
    0,
    0.001,
    0,
    0,
    0,
    0,
    0.001,
    0,
    0,
    0,
    0,
    1],
   "children" : [
    21]}],
 "scenes" : [
  {
   "name" : "Root",
   "nodes" : [
    22]}],
 "scene" : 0,
 "buffers" : [
  {
   "byteLength" : 51752,
   "uri" : "Mixed reality epic plus.bin"}],
 "bufferViews" : [
  {
   "buffer" : 0,
   "byteOffset" : 0,
   "byteLength" : 4632,
   "target" : 34963},
  {
   "buffer" : 0,
   "byteOffset" : 4632,
   "byteLength" : 28272,
   "byteStride" : 12,
   "target" : 34962},
  {
   "buffer" : 0,
   "byteOffset" : 32904,
   "byteLength" : 18848,
   "byteStride" : 8,
   "target" : 34962}],
 "accessors" : [
  {
   "bufferView" : 0,
   "count" : 120,
   "componentType" : 5123,
   "type" : "SCALAR",
   "byteOffset" : 0,
   "min" : [
    0],
   "max" : [
    57]},
  {
   "bufferView" : 0,
   "count" : 120,
   "componentType" : 5123,
   "type" : "SCALAR",
   "byteOffset" : 240,
   "min" : [
    0],
   "max" : [
    59]},
  {
   "bufferView" : 0,
   "count" : 252,
   "componentType" : 5123,
   "type" : "SCALAR",
   "byteOffset" : 480,
   "min" : [
    0],
   "max" : [
    121]},
  {
   "bufferView" : 0,
   "count" : 1560,
   "componentType" : 5123,
   "type" : "SCALAR",
   "byteOffset" : 984,
   "min" : [
    0],
   "max" : [
    801]},
  {
   "bufferView" : 0,
   "count" : 228,
   "componentType" : 5123,
   "type" : "SCALAR",
   "byteOffset" : 4104,
   "min" : [
    0],
   "max" : [
    111]},
  {
   "bufferView" : 0,
   "count" : 36,
   "componentType" : 5123,
   "type" : "SCALAR",
   "byteOffset" : 4560,
   "min" : [
    0],
   "max" : [
    23]},
  {
   "bufferView" : 1,
   "count" : 58,
   "componentType" : 5126,
   "type" : "VEC3",
   "byteOffset" : 0,
   "min" : [
    -32.5,
    -183,
    -17.5],
   "max" : [
    32.5,
    183,
    17.5]},
  {
   "bufferView" : 1,
   "count" : 58,
   "componentType" : 5126,
   "type" : "VEC3",
   "byteOffset" : 696,
   "min" : [
    -1,
    -0.766044,
    -1],
   "max" : [
    1,
    0.766044,
    1]},
  {
   "bufferView" : 1,
   "count" : 60,
   "componentType" : 5126,
   "type" : "VEC3",
   "byteOffset" : 1392,
   "min" : [
    -32.5,
    -334.5,
    -17.5],
   "max" : [
    32.5,
    334.5,
    17.5]},
  {
   "bufferView" : 1,
   "count" : 60,
   "componentType" : 5126,
   "type" : "VEC3",
   "byteOffset" : 2112,
   "min" : [
    -1,
    -1,
    -1],
   "max" : [
    1,
    0.766044,
    1]},
  {
   "bufferView" : 1,
   "count" : 122,
   "componentType" : 5126,
   "type" : "VEC3",
   "byteOffset" : 2832,
   "min" : [
    -22.5,
    -75,
    -0],
   "max" : [
    22.5,
    65,
    44]},
  {
   "bufferView" : 1,
   "count" : 122,
   "componentType" : 5126,
   "type" : "VEC3",
   "byteOffset" : 4296,
   "min" : [
    -1,
    -1,
    -1],
   "max" : [
    1,
    1,
    1]},
  {
   "bufferView" : 1,
   "count" : 802,
   "componentType" : 5126,
   "type" : "VEC3",
   "byteOffset" : 5760,
   "min" : [
    -20.077871,
    -5,
    -30.352995],
   "max" : [
    20.077871,
    10,
    30]},
  {
   "bufferView" : 1,
   "count" : 802,
   "componentType" : 5126,
   "type" : "VEC3",
   "byteOffset" : 15384,
   "min" : [
    -1,
    -1,
    -1],
   "max" : [
    1,
    1,
    1]},
  {
   "bufferView" : 1,
   "count" : 112,
   "componentType" : 5126,
   "type" : "VEC3",
   "byteOffset" : 25008,
   "min" : [
    -11.4,
    -11.4,
    0],
   "max" : [
    11.4,
    11.4,
    15.75]},
  {
   "bufferView" : 1,
   "count" : 112,
   "componentType" : 5126,
   "type" : "VEC3",
   "byteOffset" : 26352,
   "min" : [
    -1,
    -1,
    -1],
   "max" : [
    1,
    1,
    1]},
  {
   "bufferView" : 1,
   "count" : 24,
   "componentType" : 5126,
   "type" : "VEC3",
   "byteOffset" : 27696,
   "min" : [
    -900,
    -400,
    0],
   "max" : [
    900,
    400,
    25]},
  {
   "bufferView" : 1,
   "count" : 24,
   "componentType" : 5126,
   "type" : "VEC3",
   "byteOffset" : 27984,
   "min" : [
    -1,
    -1,
    -1],
   "max" : [
    1,
    1,
    1]},
  {
   "bufferView" : 2,
   "count" : 58,
   "componentType" : 5126,
   "type" : "VEC2",
   "byteOffset" : 0,
   "min" : [
    0.0025,
    -2.003579],
   "max" : [
    2.482396,
    0.783]},
  {
   "bufferView" : 2,
   "count" : 58,
   "componentType" : 5126,
   "type" : "VEC2",
   "byteOffset" : 464,
   "min" : [
    0.025,
    -45.81411],
   "max" : [
    42.103554,
    -6.17]},
  {
   "bufferView" : 2,
   "count" : 60,
   "componentType" : 5126,
   "type" : "VEC2",
   "byteOffset" : 928,
   "min" : [
    0.0025,
    -2.003579],
   "max" : [
    2.499219,
    0.445966]},
  {
   "bufferView" : 2,
   "count" : 60,
   "componentType" : 5126,
   "type" : "VEC2",
   "byteOffset" : 1408,
   "min" : [
    0.025,
    -46.986511],
   "max" : [
    48.402695,
    -4.654622]},
  {
   "bufferView" : 2,
   "count" : 122,
   "componentType" : 5126,
   "type" : "VEC2",
   "byteOffset" : 1888,
   "min" : [
    0.0525,
    -2.012579],
   "max" : [
    2.49129,
    0.6225]},
  {
   "bufferView" : 2,
   "count" : 122,
   "componentType" : 5126,
   "type" : "VEC2",
   "byteOffset" : 2864,
   "min" : [
    0.525,
    -44.224998],
   "max" : [
    42.103554,
    -7.775]},
  {
   "bufferView" : 2,
   "count" : 802,
   "componentType" : 5126,
   "type" : "VEC2",
   "byteOffset" : 3840,
   "min" : [
    0.01,
    -2.013579],
   "max" : [
    2.49429,
    0.753078]},
  {
   "bufferView" : 2,
   "count" : 802,
   "componentType" : 5126,
   "type" : "VEC2",
   "byteOffset" : 10256,
   "min" : [
    0.119999,
    -42.870777],
   "max" : [
    41.803551,
    -6.469221]},
  {
   "bufferView" : 2,
   "count" : 112,
   "componentType" : 5126,
   "type" : "VEC2",
   "byteOffset" : 16672,
   "min" : [
    0.0236,
    -1.337984],
   "max" : [
    2.510162,
    0.894943]},
  {
   "bufferView" : 2,
   "count" : 112,
   "componentType" : 5126,
   "type" : "VEC2",
   "byteOffset" : 17568,
   "min" : [
    0.244042,
    -41.262844],
   "max" : [
    48.574917,
    -4.483733]},
  {
   "bufferView" : 2,
   "count" : 24,
   "componentType" : 5126,
   "type" : "VEC2",
   "byteOffset" : 18464,
   "min" : [
    0,
    0],
   "max" : [
    1,
    1]},
  {
   "bufferView" : 2,
   "count" : 24,
   "componentType" : 5126,
   "type" : "VEC2",
   "byteOffset" : 18656,
   "min" : [
    0,
    -48],
   "max" : [
    41.653553,
    -4]}],
 "meshes" : [
  {
   "primitives" : [
    {
     "mode" : 4,
     "material" : 0,
     "indices" : 0,
     "attributes" : {
      "POSITION" : 6,
      "NORMAL" : 7,
      "TEXCOORD_0" : 18,
      "TEXCOORD_1" : 19}}]},
  {
   "primitives" : [
    {
     "mode" : 4,
     "material" : 0,
     "indices" : 1,
     "attributes" : {
      "POSITION" : 8,
      "NORMAL" : 9,
      "TEXCOORD_0" : 20,
      "TEXCOORD_1" : 21}}]},
  {
   "primitives" : [
    {
     "mode" : 4,
     "material" : 0,
     "indices" : 2,
     "attributes" : {
      "POSITION" : 10,
      "NORMAL" : 11,
      "TEXCOORD_0" : 22,
      "TEXCOORD_1" : 23}}]},
  {
   "primitives" : [
    {
     "mode" : 4,
     "material" : 1,
     "indices" : 3,
     "attributes" : {
      "POSITION" : 12,
      "NORMAL" : 13,
      "TEXCOORD_0" : 24,
      "TEXCOORD_1" : 25}}]},
  {
   "primitives" : [
    {
     "mode" : 4,
     "material" : 2,
     "indices" : 4,
     "attributes" : {
      "POSITION" : 14,
      "NORMAL" : 15,
      "TEXCOORD_0" : 26,
      "TEXCOORD_1" : 27}}]},
  {
   "primitives" : [
    {
     "mode" : 4,
     "material" : 3,
     "indices" : 5,
     "attributes" : {
      "POSITION" : 16,
      "NORMAL" : 17,
      "TEXCOORD_0" : 28,
      "TEXCOORD_1" : 29}}]}],
 "materials" : [
  {
   "name" : "Standard",
   "pbrMetallicRoughness" : {
    "baseColorFactor" : [0.331739, 0.340870, 0.350000, 1.000000],
    "metallicFactor" : 0,
    "roughnessFactor" : 0}},
  {
   "name" : "Standard",
   "pbrMetallicRoughness" : {
    "baseColorFactor" : [1.000000, 1.000000, 1.000000, 1.000000],
    "metallicFactor" : 0,
    "roughnessFactor" : 0}},
  {
   "name" : "Standard",
   "pbrMetallicRoughness" : {
    "baseColorFactor" : [0.200000, 0.200000, 0.200000, 1.000000],
    "metallicFactor" : 0,
    "roughnessFactor" : 0}},
  {
   "name" : "Wood",
   "pbrMetallicRoughness" : {
    "baseColorTexture" : {
     "index" : 1,
     "texCoord" : 0},
    "metallicRoughnessTexture" : {
     "index" : 0,
     "texCoord" : 0}},
   "normalTexture" : {
    "index" : 2,
    "texCoord" : 0}}],
 "samplers" : [
  {
}],
 "textures" : [
  {
   "source" : 0,
   "sampler" : 0},
  {
   "source" : 1,
   "sampler" : 0},
  {
   "source" : 2,
   "sampler" : 0}],
 "images" : [
  {
   "uri" : "WoodMetallicRoughness.png"},
  {
   "uri" : "WoodFineVeneerOakLarge002_COL_8K.png"},
  {
   "uri" : "WoodFineVeneerOakLarge002_NRM_8K.png"}]}