{
 "asset" : {
  "generator" : "Generated by PiXYZStudio 2020.1",
  "version" : "2.0"},
 "nodes" : [
  {
   "name" : "MR_Epic",
   "matrix" : [
    1,
    -0,
    0,
    0,
    0,
    0.984808,
    -0.173648,
    0,
    -0,
    0.173648,
    0.984808,
    0,
    865,
    -367.457036,
    -176.14882,
    1],
   "mesh" : 0},
  {
   "name" : "Root",
   "matrix" : [
    0.001,
    0,
    0,
    0,
    0,
    0.001,
    0,
    0,
    0,
    0,
    0.001,
    0,
    0,
    0,
    0,
    1],
   "children" : [
    0]}],
 "scenes" : [
  {
   "name" : "Root",
   "nodes" : [
    1]}],
 "scene" : 0,
 "buffers" : [
  {
   "byteLength" : 188024,
   "uri" : "MR_Epic.bin"}],
 "bufferViews" : [
  {
   "buffer" : 0,
   "byteOffset" : 0,
   "byteLength" : 16824,
   "target" : 34963},
  {
   "buffer" : 0,
   "byteOffset" : 16824,
   "byteLength" : 102720,
   "byteStride" : 12,
   "target" : 34962},
  {
   "buffer" : 0,
   "byteOffset" : 119544,
   "byteLength" : 68480,
   "byteStride" : 8,
   "target" : 34962}],
 "accessors" : [
  {
   "bufferView" : 0,
   "count" : 912,
   "componentType" : 5123,
   "type" : "SCALAR",
   "byteOffset" : 0,
   "min" : [
    2228],
   "max" : [
    2675]},
  {
   "bufferView" : 0,
   "count" : 6240,
   "componentType" : 5123,
   "type" : "SCALAR",
   "byteOffset" : 1824,
   "min" : [
    364],
   "max" : [
    4279]},
  {
   "bufferView" : 0,
   "count" : 36,
   "componentType" : 5123,
   "type" : "SCALAR",
   "byteOffset" : 14304,
   "min" : [
    2204],
   "max" : [
    2227]},
  {
   "bufferView" : 0,
   "count" : 1224,
   "componentType" : 5123,
   "type" : "SCALAR",
   "byteOffset" : 14376,
   "min" : [
    0],
   "max" : [
    2203]},
  {
   "bufferView" : 1,
   "count" : 4280,
   "componentType" : 5126,
   "type" : "VEC3",
   "byteOffset" : 0,
   "min" : [
    -1765,
    -355.25,
    -571.751099],
   "max" : [
    35,
    470.20517,
    237.280975]},
  {
   "bufferView" : 1,
   "count" : 4280,
   "componentType" : 5126,
   "type" : "VEC3",
   "byteOffset" : 51360,
   "min" : [
    -1,
    -1,
    -1],
   "max" : [
    1,
    1,
    1]},
  {
   "bufferView" : 2,
   "count" : 4280,
   "componentType" : 5126,
   "type" : "VEC2",
   "byteOffset" : 0,
   "min" : [
    0,
    -2.013579],
   "max" : [
    2.510162,
    1]},
  {
   "bufferView" : 2,
   "count" : 4280,
   "componentType" : 5126,
   "type" : "VEC2",
   "byteOffset" : 34240,
   "min" : [
    0,
    -48],
   "max" : [
    48.574917,
    -4]}],
 "meshes" : [
  {
   "primitives" : [
    {
     "mode" : 4,
     "material" : 0,
     "indices" : 0,
     "attributes" : {
      "POSITION" : 4,
      "NORMAL" : 5,
      "TEXCOORD_0" : 6,
      "TEXCOORD_1" : 7}},
    {
     "mode" : 4,
     "material" : 1,
     "indices" : 1,
     "attributes" : {
      "POSITION" : 4,
      "NORMAL" : 5,
      "TEXCOORD_0" : 6,
      "TEXCOORD_1" : 7}},
    {
     "mode" : 4,
     "material" : 2,
     "indices" : 2,
     "attributes" : {
      "POSITION" : 4,
      "NORMAL" : 5,
      "TEXCOORD_0" : 6,
      "TEXCOORD_1" : 7}},
    {
     "mode" : 4,
     "material" : 3,
     "indices" : 3,
     "attributes" : {
      "POSITION" : 4,
      "NORMAL" : 5,
      "TEXCOORD_0" : 6,
      "TEXCOORD_1" : 7}}]}],
 "materials" : [
  {
   "name" : "Standard",
   "pbrMetallicRoughness" : {
    "baseColorFactor" : [0.200000, 0.200000, 0.200000, 1.000000],
    "metallicFactor" : 0,
    "roughnessFactor" : 0}},
  {
   "name" : "Standard",
   "pbrMetallicRoughness" : {
    "baseColorFactor" : [1.000000, 1.000000, 1.000000, 1.000000],
    "metallicFactor" : 0,
    "roughnessFactor" : 0}},
  {
   "name" : "Standard",
   "pbrMetallicRoughness" : {
    "baseColorFactor" : [0.750000, 0.750000, 0.750000, 1.000000],
    "metallicFactor" : 0,
    "roughnessFactor" : 0}},
  {
   "name" : "Standard",
   "pbrMetallicRoughness" : {
    "baseColorFactor" : [0.331739, 0.340870, 0.350000, 1.000000],
    "metallicFactor" : 0,
    "roughnessFactor" : 0}}],
 "samplers" : [
  {
}]}