{
 "asset" : {
  "generator" : "Generated by PiXYZStudio 2020.1",
  "version" : "2.0"},
 "nodes" : [
  {
   "name" : "Jac_Side_Architectural_MR",
   "matrix" : [
    1,
    0,
    0,
    0,
    0,
    -0,
    1,
    0,
    0,
    -1,
    -0,
    0,
    0,
    0,
    0,
    1],
   "mesh" : 0},
  {
   "name" : "Root",
   "matrix" : [
    0.001,
    0,
    0,
    0,
    0,
    0.001,
    0,
    0,
    0,
    0,
    0.001,
    0,
    0,
    0,
    0,
    1],
   "children" : [
    0]}],
 "scenes" : [
  {
   "name" : "Root",
   "nodes" : [
    1]}],
 "scene" : 0,
 "buffers" : [
  {
   "byteLength" : 626856,
   "uri" : "MR_Jac_Side_Architectural.bin"}],
 "bufferViews" : [
  {
   "buffer" : 0,
   "byteOffset" : 0,
   "byteLength" : 55752,
   "target" : 34963},
  {
   "buffer" : 0,
   "byteOffset" : 55752,
   "byteLength" : 428328,
   "byteStride" : 12,
   "target" : 34962},
  {
   "buffer" : 0,
   "byteOffset" : 484080,
   "byteLength" : 142776,
   "byteStride" : 8,
   "target" : 34962}],
 "accessors" : [
  {
   "bufferView" : 0,
   "count" : 825,
   "componentType" : 5123,
   "type" : "SCALAR",
   "byteOffset" : 0,
   "min" : [
    7585],
   "max" : [
    13591]},
  {
   "bufferView" : 0,
   "count" : 10797,
   "componentType" : 5123,
   "type" : "SCALAR",
   "byteOffset" : 1652,
   "min" : [
    7013],
   "max" : [
    17846]},
  {
   "bufferView" : 0,
   "count" : 16251,
   "componentType" : 5123,
   "type" : "SCALAR",
   "byteOffset" : 23248,
   "min" : [
    0],
   "max" : [
    9406]},
  {
   "bufferView" : 1,
   "count" : 17847,
   "componentType" : 5126,
   "type" : "VEC3",
   "byteOffset" : 0,
   "min" : [
    -229.945724,
    -265.426178,
    2.531061],
   "max" : [
    229.945724,
    262.338593,
    823.03363]},
  {
   "bufferView" : 1,
   "count" : 17847,
   "componentType" : 5126,
   "type" : "VEC3",
   "byteOffset" : 214164,
   "min" : [
    -1,
    -1,
    -1],
   "max" : [
    1,
    1,
    1]},
  {
   "bufferView" : 2,
   "count" : 17847,
   "componentType" : 5126,
   "type" : "VEC2",
   "byteOffset" : 0,
   "min" : [
    0,
    -0.344655],
   "max" : [
    1.371457,
    1]}],
 "meshes" : [
  {
   "primitives" : [
    {
     "mode" : 4,
     "material" : 0,
     "indices" : 0,
     "attributes" : {
      "POSITION" : 3,
      "NORMAL" : 4,
      "TEXCOORD_0" : 5}},
    {
     "mode" : 4,
     "material" : 1,
     "indices" : 1,
     "attributes" : {
      "POSITION" : 3,
      "NORMAL" : 4,
      "TEXCOORD_0" : 5}},
    {
     "mode" : 4,
     "material" : 2,
     "indices" : 2,
     "attributes" : {
      "POSITION" : 3,
      "NORMAL" : 4,
      "TEXCOORD_0" : 5}}]}],
 "materials" : [
  {
   "name" : "Black",
   "pbrMetallicRoughness" : {
    "baseColorFactor" : [0.000000, 0.000000, 0.000000, 1.000000],
    "metallicFactor" : 0,
    "roughnessFactor" : 1}},
  {
   "name" : "WoodFine",
   "pbrMetallicRoughness" : {
    "baseColorTexture" : {
     "index" : 1,
     "texCoord" : 0,
     "extensions" : {
      "KHR_texture_transform" : {
       "offset" : [
        0,
        0],
       "scale" : [
        1,
        0.5]}}},
    "metallicFactor" : 0,
    "metallicRoughnessTexture" : {
     "index" : 0,
     "texCoord" : 0,
     "extensions" : {
      "KHR_texture_transform" : {
       "offset" : [
        0,
        0],
       "scale" : [
        1,
        0.5]}}}},
   "normalTexture" : {
    "index" : 2,
    "texCoord" : 0,
    "extensions" : {
     "KHR_texture_transform" : {
      "offset" : [
       0,
       0],
      "scale" : [
       1,
       0.5]}}}},
  {
   "name" : "Weave",
   "pbrMetallicRoughness" : {
    "baseColorTexture" : {
     "index" : 3,
     "texCoord" : 0,
     "extensions" : {
      "KHR_texture_transform" : {
       "offset" : [
        0,
        0],
       "scale" : [
        2,
        2]}}},
    "metallicFactor" : 0,
    "roughnessFactor" : 1},
   "normalTexture" : {
    "index" : 4,
    "texCoord" : 0,
    "extensions" : {
     "KHR_texture_transform" : {
      "offset" : [
       0,
       0],
      "scale" : [
       2,
       2]}}}}],
 "samplers" : [
  {
}],
 "textures" : [
  {
   "source" : 0,
   "sampler" : 0},
  {
   "source" : 1,
   "sampler" : 0},
  {
   "source" : 2,
   "sampler" : 0},
  {
   "source" : 3,
   "sampler" : 0},
  {
   "source" : 4,
   "sampler" : 0}],
 "images" : [
  {
   "uri" : "WoodFineMetallicRoughness.png"},
  {
   "uri" : "WoodFine18_COL_VAR1_HIRES.png"},
  {
   "uri" : "WoodFine18_NRM_HIRES.png"},
  {
   "uri" : "Local.png"},
  {
   "uri" : "FabricWeaveCouch001_NRM_HIRES.png"}],
 "extensionsUsed" : [
  "KHR_texture_transform"]}