{
 "asset" : {
  "generator" : "Generated by PiXYZStudio 2020.1",
  "version" : "2.0"},
 "nodes" : [
  {
   "name" : "ZenithVR Logo 3D",
   "matrix" : [
    0.260562,
    0,
    0,
    0,
    0,
    0.260562,
    0,
    0,
    0,
    -0,
    0.330454,
    0,
    -38.712633,
    92.850267,
    -4.556956,
    1],
   "mesh" : 0},
  {
   "name" : "Root",
   "matrix" : [
    0.001,
    0,
    0,
    0,
    0,
    0.001,
    0,
    0,
    0,
    0,
    0.001,
    0,
    0,
    0,
    0,
    1],
   "children" : [
    0]}],
 "scenes" : [
  {
   "name" : "Root",
   "nodes" : [
    1]}],
 "scene" : 0,
 "buffers" : [
  {
   "byteLength" : 57936,
   "uri" : "ZenithVR_Logo_3D.bin"}],
 "bufferViews" : [
  {
   "buffer" : 0,
   "byteOffset" : 0,
   "byteLength" : 10656,
   "target" : 34963},
  {
   "buffer" : 0,
   "byteOffset" : 10656,
   "byteLength" : 47280,
   "byteStride" : 12,
   "target" : 34962}],
 "accessors" : [
  {
   "bufferView" : 0,
   "count" : 3612,
   "componentType" : 5123,
   "type" : "SCALAR",
   "byteOffset" : 0,
   "min" : [
    142],
   "max" : [
    1893]},
  {
   "bufferView" : 0,
   "count" : 1716,
   "componentType" : 5123,
   "type" : "SCALAR",
   "byteOffset" : 7224,
   "min" : [
    0],
   "max" : [
    1969]},
  {
   "bufferView" : 1,
   "count" : 1970,
   "componentType" : 5126,
   "type" : "VEC3",
   "byteOffset" : 0,
   "min" : [
    -288.47821,
    -187.168457,
    -0.000002],
   "max" : [
    585.625366,
    130.729919,
    27.58]},
  {
   "bufferView" : 1,
   "count" : 1970,
   "componentType" : 5126,
   "type" : "VEC3",
   "byteOffset" : 23640,
   "min" : [
    -1,
    -1,
    -1],
   "max" : [
    1,
    1,
    1]}],
 "meshes" : [
  {
   "primitives" : [
    {
     "mode" : 4,
     "material" : 0,
     "indices" : 0,
     "attributes" : {
      "POSITION" : 2,
      "NORMAL" : 3}},
    {
     "mode" : 4,
     "material" : 1,
     "indices" : 1,
     "attributes" : {
      "POSITION" : 2,
      "NORMAL" : 3}}]}],
 "materials" : [
  {
   "name" : "Standard",
   "pbrMetallicRoughness" : {
    "baseColorFactor" : [0.180392, 0.184314, 0.188235, 1.000000],
    "metallicFactor" : 0,
    "roughnessFactor" : 0}},
  {
   "name" : "Standard",
   "pbrMetallicRoughness" : {
    "baseColorFactor" : [1.000000, 1.000000, 1.000000, 1.000000],
    "metallicFactor" : 0,
    "roughnessFactor" : 0}}],
 "samplers" : [
  {
}]}